<?xml version="1.0" encoding="UTF-8"?><svg id="Calque_1" xmlns="http://www.w3.org/2000/svg" viewBox="0 0 1920 1080"><defs><style>.cls-1{fill:#1d1d1b;}.cls-1,.cls-2{stroke-width:0px;}.cls-2{fill:#f5f5f5;}</style></defs><rect class="cls-2" x="-43.54" y="-19.3" width="2007.09" height="1118.6"/><path class="cls-1" d="M688.98,579.77v-3.73h78.69v-49.04h-59.48v-3.73h59.48v-45.87h-44.19c-10.63,18.27-23.5,31.51-35.43,40.65,16.6-16.6,31.51-44.56,39.16-82.04l22.38,1.87-10.82,4.29c-3.54,11.56-8.02,22.19-13.05,31.51h41.95v-43.45h28.34l-16.97,6.53v36.92h44.94l11.19-12.12,20.7,15.85h-76.82v45.87h28.9l11.19-12.12,20.7,15.85h-60.79v49.04h45.31l12.49-13.24,22.38,16.97h-170.24Z"/><path class="cls-1" d="M894.65,530.73c0-27.04,9.14-52.4,10.07-71.23.56-10.07-3.73-15.85-12.87-21.26,8.58,2.24,13.05,3.73,17.53,6.71,3.17,2.05,9.88,10.26,9.88,11.93,0,2.05-17.53,36.36-17.53,68.43,0,22.38,7.65,35.61,13.43,35.61,2.05,0,3.17-1.3,4.29-3.54l22-45.5-18.09,54.45c-1.12,3.92-.93,8.02-1.12,9.14,0,.75-1.86,1.31-3.92,1.31-12.68,0-23.68-16.78-23.68-46.06ZM997.39,535.39c.56-15.1.37-31.33,0-45.68-8.02,1.68-15.29,2.8-19.21,2.8-15.48-.19-30.21-8.2-39.53-21.26,8.02,8.21,21.82,13.24,37.67,13.24,5.97,0,13.61-1.31,21.07-3.17-.19-8.2-.56-16.04-.75-23.12-.37-14.17-4.66-15.1-20.32-12.68,8.58-3.73,16.22-5.78,21.26-5.78,3.54,0,12.68,5.41,12.68,6.71s-1.68,3.36-2.61,16.22c-.37,5.04-.75,10.44-.93,16.22,4.48-1.31,8.76-2.8,12.12-4.1,2.8-1.12,4.47-2.98,4.47-4.85.19-.75,0-1.87-.19-2.42l13.61,3.54c1.12.37,1.86.93,1.86,1.87,0,3.36-6.53,6.9-15.29,9.88-5.03,1.87-11,3.73-16.78,5.04v9.32c.56,17.15,2.05,27.6,1.87,39.34-.37,28.16-26.85,47.18-54.26,47.55,25.73-5.22,42.14-23.5,43.26-48.67Z"/><path class="cls-1" d="M1114.85,469.94v-18.65h-52.96v-3.73h52.96v-17.34h27.41l-16.97,6.53v10.81h40.83v-17.34h27.41l-16.97,6.53v10.81h23.12l11-11.93,20.14,15.66h-54.26v11l-10.44,7.65v-18.65h-40.83v11l-10.44,7.65ZM1097.51,592.63v-71.6c-9.88,15.48-21.63,27.22-33.19,35.61,17.34-16.41,33.19-44.75,40.65-81.3l22.38,2.42-11.37,3.92c-3.17,10.07-7.09,19.21-11.56,27.78h20.14l-17.15,6.53v69.36l-9.88,7.27ZM1164.45,587.23c-9.14,0-13.99-4.66-13.99-13.24v-98.64h27.22l-16.97,6.53v52.21c16.97-11.19,34.12-28.34,48.85-52.96l19.95,9.7-11.56.19c-17.71,23.31-38.6,37.48-57.24,45.12v35.8c0,4.1,2.05,6.34,5.78,6.34h50.9c2.05,0,3.54-1.3,3.92-4.1l3.73-45.68,3.17,49.6c.37,3.92,3.73,4.1,3.73,5.03,0,3.54-4.85,4.1-8.58,4.1h-58.92Z"/><path class="cls-1" d="M834.57,611.95h12.37l-4.98,2.01v32.69l4.98,2.01h-12.37l4.98-2.01v-32.69l-4.98-2.01Z"/><path class="cls-1" d="M859.47,628.65v18l4.98,2.01h-12.37l4.98-2.01v-32.79l-4.98-1.91h13.38l-5.99,1.91v14.18h2.06l19.56-16.09h3.67l-22.48,16.25,25.2,20.47h-3.87l-24.14-20.02Z"/><path class="cls-1" d="M921.83,638.31l-1.61,9.56v.8h-28.67l4.98-2.16v-32.39l-4.98-2.16h26.81v.8l1.51,8.25-4.63-8.15h-16.29v15.94h10.61l2.46-5.48v11.92l-2.46-5.53h-10.61v18.06h18.16l4.73-9.46Z"/><path class="cls-1" d="M944.46,648.67h-17.1l4.98-2.16v-32.39l-4.98-2.16h17.95c6.19,0,11.27,3.82,11.27,8.55,0,4.12-3.52,7.39-8.3,8.45v.5c5.48,1.21,9.41,4.83,9.46,9.41.05,5.83-5.88,9.81-13.28,9.81ZM934.76,612.86v15.99h10.16c5.38,0,9.05-3.42,9.05-8.35,0-4.48-3.47-7.64-8.8-7.64h-10.41ZM955.02,638.81c0-5.58-4.22-9.1-10.66-9.1h-9.61v18.06h9.61c6.49,0,10.66-3.32,10.66-8.95Z"/><path class="cls-1" d="M1000.99,648.67h-13.18l5.68-1.96-4.83-11.32h-16.6l-4.63,11.27,5.93,2.01h-11.87l4.68-2.01,13.53-32.14-2.01-2.57,3.52-.6,14.89,35.25,4.88,2.06ZM988.32,634.49l-7.79-18.41h-.5l-7.59,18.41h15.89Z"/><path class="cls-1" d="M1038.71,614.02v35.76l-26.76-32.54h-.45v29.37l4.98,2.06h-11.16l4.98-2.06v-31.38l-.05-.05-3.52-3.22,3.52-.6,26.66,32.34h.6v-29.67l-4.98-2.06h11.17l-4.98,2.06Z"/><path class="cls-1" d="M1085.89,648.67h-13.18l5.68-1.96-4.83-11.32h-16.6l-4.63,11.27,5.93,2.01h-11.87l4.68-2.01,13.53-32.14-2.01-2.57,3.52-.6,14.89,35.25,4.88,2.06ZM1073.22,634.49l-7.79-18.41h-.5l-7.59,18.41h15.89Z"/><path class="cls-1" d="M902.77,963.89v-.79h16.62v-10.36h-12.56v-.79h12.56v-9.69h-9.33c-2.24,3.86-4.96,6.65-7.48,8.58,3.5-3.5,6.65-9.41,8.27-17.33l4.73.39-2.28.91c-.75,2.44-1.69,4.69-2.76,6.65h8.86v-9.18h5.99l-3.58,1.38v7.8h9.49l2.36-2.56,4.37,3.35h-16.22v9.69h6.1l2.36-2.56,4.37,3.35h-12.84v10.36h9.57l2.64-2.8,4.73,3.58h-35.95Z"/><path class="cls-1" d="M946.2,953.53c0-5.71,1.93-11.07,2.13-15.04.12-2.13-.79-3.35-2.72-4.49,1.81.47,2.76.79,3.7,1.42.67.43,2.09,2.17,2.09,2.52,0,.43-3.7,7.68-3.7,14.45,0,4.73,1.61,7.52,2.84,7.52.43,0,.67-.28.91-.75l4.65-9.61-3.82,11.5c-.24.83-.2,1.69-.24,1.93,0,.16-.39.28-.83.28-2.68,0-5-3.54-5-9.73ZM967.9,954.52c.12-3.19.08-6.62,0-9.65-1.69.35-3.23.59-4.06.59-3.27-.04-6.38-1.73-8.35-4.49,1.69,1.73,4.61,2.8,7.95,2.8,1.26,0,2.87-.28,4.45-.67-.04-1.73-.12-3.39-.16-4.88-.08-2.99-.98-3.19-4.29-2.68,1.81-.79,3.43-1.22,4.49-1.22.75,0,2.68,1.14,2.68,1.42s-.35.71-.55,3.43c-.08,1.06-.16,2.21-.2,3.43.95-.28,1.85-.59,2.56-.87.59-.24.94-.63.94-1.02.04-.16,0-.39-.04-.51l2.87.75c.24.08.39.2.39.39,0,.71-1.38,1.46-3.23,2.09-1.06.39-2.32.79-3.54,1.06v1.97c.12,3.62.43,5.83.39,8.31-.08,5.95-5.67,9.96-11.46,10.04,5.43-1.1,8.9-4.96,9.14-10.28Z"/><path class="cls-1" d="M992.7,940.69v-3.94h-11.18v-.79h11.18v-3.66h5.79l-3.58,1.38v2.28h8.62v-3.66h5.79l-3.58,1.38v2.28h4.88l2.32-2.52,4.25,3.31h-11.46v2.32l-2.21,1.61v-3.94h-8.62v2.32l-2.21,1.61ZM989.04,966.6v-15.12c-2.09,3.27-4.57,5.75-7.01,7.52,3.66-3.47,7.01-9.45,8.58-17.17l4.73.51-2.4.83c-.67,2.13-1.5,4.06-2.44,5.87h4.25l-3.62,1.38v14.65l-2.09,1.54ZM1003.18,965.46c-1.93,0-2.95-.98-2.95-2.8v-20.83h5.75l-3.58,1.38v11.03c3.58-2.36,7.21-5.99,10.32-11.18l4.21,2.05-2.44.04c-3.74,4.92-8.15,7.91-12.09,9.53v7.56c0,.87.43,1.34,1.22,1.34h10.75c.43,0,.75-.28.83-.87l.79-9.65.67,10.47c.08.83.79.87.79,1.06,0,.75-1.02.87-1.81.87h-12.44Z"/><path class="cls-1" d="M933.51,970.69h2.61l-1.05.42v6.9l1.05.42h-2.61l1.05-.42v-6.9l-1.05-.42Z"/><path class="cls-1" d="M938.77,974.21v3.8l1.05.42h-2.61l1.05-.42v-6.92l-1.05-.4h2.83l-1.26.4v3h.44l4.13-3.4h.78l-4.75,3.43,5.32,4.32h-.82l-5.1-4.23Z"/><path class="cls-1" d="M951.94,976.25l-.34,2.02v.17h-6.05l1.05-.46v-6.84l-1.05-.46h5.66v.17l.32,1.74-.98-1.72h-3.44v3.37h2.24l.52-1.16v2.52l-.52-1.17h-2.24v3.81h3.83l1-2Z"/><path class="cls-1" d="M956.72,978.44h-3.61l1.05-.46v-6.84l-1.05-.46h3.79c1.31,0,2.38.81,2.38,1.81,0,.87-.74,1.56-1.75,1.78v.11c1.16.25,1.99,1.02,2,1.99.01,1.23-1.24,2.07-2.8,2.07ZM954.67,970.88v3.38h2.15c1.14,0,1.91-.72,1.91-1.76,0-.95-.73-1.61-1.86-1.61h-2.2ZM958.95,976.36c0-1.18-.89-1.92-2.25-1.92h-2.03v3.81h2.03c1.37,0,2.25-.7,2.25-1.89Z"/><path class="cls-1" d="M968.66,978.44h-2.78l1.2-.41-1.02-2.39h-3.5l-.98,2.38,1.25.42h-2.51l.99-.42,2.86-6.79-.42-.54.74-.13,3.14,7.45,1.03.44ZM965.98,975.44l-1.65-3.89h-.11l-1.6,3.89h3.36Z"/><path class="cls-1" d="M976.62,971.12v7.55l-5.65-6.87h-.1v6.2l1.05.44h-2.36l1.05-.44v-6.63h-.01s-.74-.69-.74-.69l.74-.13,5.63,6.83h.13v-6.27l-1.05-.44h2.36l-1.05.44Z"/><path class="cls-1" d="M986.59,978.44h-2.78l1.2-.41-1.02-2.39h-3.5l-.98,2.38,1.25.42h-2.51l.99-.42,2.86-6.79-.42-.54.74-.13,3.14,7.45,1.03.44ZM983.91,975.44l-1.65-3.89h-.11l-1.6,3.89h3.36Z"/></svg>