<?xml version="1.0" encoding="UTF-8"?><svg id="Calque_1" xmlns="http://www.w3.org/2000/svg" viewBox="0 0 1920 1080"><defs><style>.cls-1{fill:#f5f5f5;}.cls-1,.cls-2{stroke-width:0px;}.cls-2{fill:#010000;}</style></defs><rect class="cls-1" x="-43.54" y="-19.3" width="2007.09" height="1118.6"/><path class="cls-2" d="M736.12,323.06v-18.54h10.28v1.35h-8.64v6.94h8.11v1.35h-8.11v7.55h8.85v1.35h-10.49Z"/><path class="cls-2" d="M751.09,305.26c.66,0,1.11.48,1.11,1.11s-.45,1.09-1.11,1.09-1.11-.48-1.11-1.09.45-1.11,1.11-1.11ZM750.29,310.63h1.59v12.42h-1.59v-12.42Z"/><path class="cls-2" d="M759.7,316.12l-1.67,1.56v5.38h-1.59v-18.54h1.59v11.31l5.64-5.19h1.99l-4.79,4.5,5.7,7.92h-1.91l-4.95-6.94Z"/><path class="cls-2" d="M779.01,316.86c0,3.66-1.99,6.52-5.75,6.52s-5.75-2.86-5.75-6.52,1.99-6.54,5.75-6.54,5.75,2.89,5.75,6.54ZM769.16,316.86c0,2.83,1.35,5.22,4.11,5.22s4.11-2.38,4.11-5.22-1.35-5.25-4.11-5.25-4.11,2.38-4.11,5.25Z"/><path class="cls-2" d="M812.66,436.58h-26.1l11.26-3.89-9.56-22.42h-32.88l-9.17,22.32,11.76,3.99h-23.51l9.27-3.99,26.8-63.66-3.99-5.08,6.97-1.2,29.49,69.84,9.66,4.08ZM787.55,408.48l-15.44-36.46h-1l-15.04,36.46h31.48Z"/><path class="cls-2" d="M853.41,436.58h-33.87l9.86-4.28v-64.16l-9.86-4.28h35.57c12.25,0,22.32,7.57,22.32,16.94,0,8.17-6.97,14.65-16.44,16.74v1c10.86,2.39,18.63,9.56,18.73,18.63.1,11.56-11.66,19.43-26.3,19.43ZM834.18,365.65v31.68h20.12c10.66,0,17.93-6.77,17.93-16.54,0-8.87-6.87-15.14-17.43-15.14h-20.62ZM874.33,417.05c0-11.06-8.37-18.03-21.12-18.03h-19.03v35.77h19.03c12.85,0,21.12-6.58,21.12-17.73Z"/><path class="cls-2" d="M926.33,362.66c8.67-.1,16.54,1.59,22.62,4.58v1.59l2.69,14.25c-5.08-12.35-13.15-18.53-25.3-18.43-17.83,0-29.89,14.74-29.89,34.97s12.05,36.16,30.58,36.16c12.15.1,20.22-6.08,25.9-20.62l-3.29,16.44v1.59c-6.08,2.99-13.95,4.68-22.61,4.58-19.53,0-36.16-17.14-36.16-38.16s16.34-36.96,35.47-36.96Z"/><path class="cls-2" d="M1028.65,399.62c0,20.32-17.14,36.96-39.45,36.96h-27.8l9.86-4.28v-64.16l-9.86-4.28h27.8c22.32,0,39.45,16.14,39.45,35.76ZM1023.07,399.62c0-19.92-14.25-33.97-34.17-33.97h-12.85v69.14h12.75c20.02,0,34.27-14.55,34.27-35.17Z"/><path class="cls-2" d="M1098.39,416.06l-3.19,18.93v1.59h-56.79l9.86-4.28v-64.16l-9.86-4.28h53.1v1.59l2.99,16.34-9.17-16.14h-32.28v31.58h21.02l4.88-10.86v23.61l-4.88-10.96h-21.02v35.77h35.96l9.36-18.73Z"/><path class="cls-2" d="M1122,365.65v31.58h21.92l5.18-10.86v23.61l-5.18-10.96h-21.92v33.57l11.86,3.99h-26.5l9.86-3.99v-64.46l-9.86-4.28h56.09v1.59l2.99,16.64-9.37-16.44h-35.07Z"/><path class="cls-2" d="M1237.86,404.2v34.37l-3.49-10.36c-6.48,6.28-15.94,9.56-24.61,9.56-19.33,0-35.96-17.14-35.96-38.16s16.34-36.96,36.26-36.96c8.17-.1,16.04,1.59,22.12,4.58v1.59l2.69,14.25c-5.08-12.35-13.15-18.53-25.21-18.43-18.23,0-30.29,14.74-30.29,34.97s12.05,36.16,30.39,36.16c9.76,0,19.33-4.58,23.61-13.45v-20.62h-18.43v-1.79h32.78l-9.86,4.28Z"/><path class="cls-2" d="M1315.87,432.59l9.86,3.99h-26.5l11.86-3.99v-34.87h-42.14v34.87l11.86,3.99h-26.5l9.86-3.99v-64.76l-9.86-3.98h26.5l-11.86,3.98v28.09h42.14v-28.09l-11.86-3.98h26.5l-9.86,3.98v64.76Z"/><path class="cls-2" d="M1333.9,363.85h24.51l-9.86,3.98v64.76l9.86,3.99h-24.51l9.86-3.99v-64.76l-9.86-3.98Z"/><path class="cls-2" d="M1348.74,450.23c0-1.69,1.1-2.89,2.79-2.89,3.59,0,6.68,7.77,13.15,7.77,8.47,0,11.46-6.77,11.46-19.83v-67.45l-9.86-3.98h24.51l-9.86,3.98v69.04c0,12.25-7.47,20.02-19.13,20.02-7.27,0-13.05-3.09-13.05-6.67Z"/><path class="cls-2" d="M1413.1,396.93v35.67l9.86,3.99h-24.51l9.86-3.99v-64.96l-9.86-3.79h26.5l-11.86,3.79v28.09h4.08l38.75-31.88h7.27l-44.53,32.18,49.91,40.55h-7.67l-47.82-39.65Z"/><path class="cls-2" d="M1533.45,414.36l-2.99,20.62v1.59h-55.79l9.86-4.28v-64.46l-9.86-3.98h26.5l-11.86,3.98v66.75h34.67l9.46-20.22Z"/><path class="cls-2" d="M1622.71,432.59l9.86,3.99h-24.51l9.86-3.99v-61.27h-1l-30.19,67.45-31.88-67.45h-.8v61.27l9.86,3.99h-22.12l9.86-3.99v-64.66l-9.07-4.08h13.85l31.28,65.75h1.1l29.09-65.75h14.64l-9.86,3.98v64.76Z"/><path class="cls-2" d="M1706.6,367.94v70.83l-53-64.46h-.9v58.18l9.86,4.08h-22.12l9.86-4.08v-62.17l-.1-.1-6.97-6.38,6.97-1.2,52.8,64.06h1.2v-58.78l-9.86-4.08h22.12l-9.86,4.08Z"/><path class="cls-2" d="M1725.43,399.62c0-20.32,16.34-36.96,34.77-36.96s34.77,16.64,34.77,36.96-16.64,38.16-34.77,38.16-34.77-17.14-34.77-38.16ZM1789.48,399.62c0-20.22-12.05-34.97-29.29-34.97s-29.29,14.74-29.29,34.97,12.05,36.16,29.29,36.16,29.29-15.04,29.29-36.16Z"/><path class="cls-2" d="M793.73,473.18c0,10.96-10.86,19.92-24.11,19.92h-19.23v29.49l11.86,3.99h-26.5l9.86-3.99v-64.46l-9.86-4.28h33.87c13.25,0,24.11,8.67,24.11,19.33ZM788.45,473.18c0-10.36-8.07-17.53-19.63-17.53h-18.43v35.67h18.43c11.56,0,19.63-7.47,19.63-18.13Z"/><path class="cls-2" d="M840.06,452.66c18.43,0,34.77,16.64,34.77,36.96s-16.64,38.16-34.77,38.16c-.8,0-1.69,0-2.49-.1v1.1l39.15,15.74-7.37,3.49-43.04-23.41c-11.76-6.38-21.02-19.53-21.02-34.97,0-20.32,16.34-36.96,34.77-36.96ZM840.06,525.78c17.24,0,29.29-15.04,29.29-36.16s-12.05-34.97-29.29-34.97-29.29,14.74-29.29,34.97,12.05,36.16,29.29,36.16Z"/><path class="cls-2" d="M899.24,490.51v32.08l9.86,3.99h-24.51l9.86-3.99v-64.46l-9.86-4.28h28.69c14.35,0,24.81,7.87,24.81,17.83,0,9.17-7.87,16.94-20.02,18.53v1.3l33.47,35.07h-6.87l-33.18-36.06h-12.25ZM899.24,455.65v33.17h13.55c13.05,0,20.12-7.27,20.12-17.14s-7.37-16.04-20.62-16.04h-13.05Z"/><path class="cls-2" d="M984.31,525.98c10.06,0,17.14-6.38,17.14-16.24,0-22.02-40.95-14.35-40.95-39.15,0-10.26,8.97-17.93,20.92-17.93,6.48,0,13.75,1.59,19.83,4.58v1.59l2.79,15.44c-5.18-13.55-12.85-19.83-23.21-19.83-9.36,0-16.34,6.58-16.34,15.24,0,21.02,40.95,13.85,40.95,38.85,0,11.36-8.47,19.23-21.82,19.23-8.37,0-17.73-2.59-22.42-4.78v-1.59l-1.99-16.54c3.89,15.64,14.35,21.12,25.11,21.12Z"/><path class="cls-2" d="M1050.57,455.65v66.95l11.86,3.99h-28.49l11.85-3.99v-66.95h-20.52l-9.76,17.43,3.19-17.63v-1.59h58.98v1.59l3.19,17.63-9.76-17.43h-20.52Z"/><path class="cls-2" d="M1098.09,458.14l-9.86-4.28h24.31l-9.86,4.28.2,45.13c0,12.05,9.96,21.22,23.11,21.22,12.35,0,21.62-8.97,21.62-20.82v-45.53l-9.86-4.28h22.12l-9.86,4.28v45.73c0,13.65-10.66,23.91-24.71,23.91-15.44,0-27.2-9.76-27.2-22.81v-46.82Z"/><path class="cls-2" d="M1203.29,528.77l-28.49-71.13-9.26-3.79h26.1l-11.56,3.88,24.01,60.57h1.1l21.52-60.57-11.86-3.88h23.51l-9.17,3.88-25.9,71.03Z"/><path class="cls-2" d="M1317.76,528.77l-18.73-46.72-17.04,46.72-28.39-71.03-9.56-3.88h26.1l-11.36,3.79,24.01,60.67h1.1l13.95-39.25-8.57-21.52-9.56-3.69h26.8l-11.96,3.69,24.01,60.77h1.1l21.52-60.57-11.96-3.88h23.61l-9.17,3.88-25.9,71.03Z"/><path class="cls-2" d="M1429.74,526.58h-27.5l12.45-3.79-21.52-30.29h-1.39l-21.92,30.29,13.55,3.79h-25.3l9.07-3.79,24.21-32.78-23.21-32.68-8.77-3.49h27.79l-12.95,3.88,19.83,27.9h1.39l19.83-28-13.75-3.79h25.5l-9.17,3.79-22.02,30.49,24.71,34.77,9.17,3.69Z"/><path class="cls-2" d="M1472.68,522.59l11.86,3.99h-28.49l11.86-3.99v-26.5l-23.51-38.55-9.26-3.69h26.4l-11.66,3.88,21.32,35.37h1.1l20.42-35.37-12.35-3.88h23.71l-8.97,3.79-22.42,38.46v26.5Z"/><path class="cls-2" d="M1564.03,505.36l-2.39,19.63v1.59h-51.71l45.33-70.93h-35.17l-9.56,16.44,3.19-16.64v-1.59h48.12l-45.33,70.93h38.65l8.87-19.43Z"/><path class="cls-2" d="M767.91,624.31v-13.35c-5.98,6.87-12.65,13.35-20.62,13.35-5.78,0-11.46-3.29-11.46-10.46,0-9.86,17.93-16.24,32.08-21.52v-4.78c0-6.97-5.28-12.65-12.75-12.65-2.79,0-5.08.7-7.87,2.29-5.88,3.39-4.58,12.65-8.87,12.65-1.59,0-2.69-1.29-2.69-2.99,0-5.98,15.44-14.45,22.22-14.45,7.67,0,14.15,5.68,14.15,14.74v31.68h8.67l-12.85,5.48ZM767.91,609.17v-15.54c-14.25,5.58-27.5,11.16-27.5,20.03,0,5.18,4.28,7.87,9.07,7.87,6.58,0,12.65-5.88,18.43-12.35ZM756.96,566.93l-14.45-22.91h5.78l8.67,22.91Z"/><path class="cls-2" d="M821.31,624.31v-13.35c-5.98,6.87-12.65,13.35-20.62,13.35-5.78,0-11.46-3.29-11.46-10.46,0-9.86,17.93-16.24,32.08-21.52v-4.78c0-6.97-5.28-12.65-12.75-12.65-2.79,0-5.08.7-7.87,2.29-5.88,3.39-4.58,12.65-8.87,12.65-1.59,0-2.69-1.29-2.69-2.99,0-5.98,15.44-14.45,22.22-14.45,7.67,0,14.15,5.68,14.15,14.74v31.68h8.67l-12.85,5.48ZM821.31,609.17v-15.54c-14.25,5.58-27.5,11.16-27.5,20.03,0,5.18,4.28,7.87,9.07,7.87,6.58,0,12.65-5.88,18.43-12.35ZM818.33,544.01l-14.45,22.91,8.67-22.91h5.78Z"/><path class="cls-2" d="M874.71,624.31v-13.35c-5.98,6.87-12.65,13.35-20.62,13.35-5.78,0-11.46-3.29-11.46-10.46,0-9.86,17.93-16.24,32.08-21.52v-4.78c0-6.97-5.28-12.65-12.75-12.65-2.79,0-5.08.7-7.87,2.29-5.88,3.39-4.58,12.65-8.87,12.65-1.59,0-2.69-1.29-2.69-2.99,0-5.98,15.44-14.45,22.22-14.45,7.67,0,14.15,5.68,14.15,14.74v31.68h8.67l-12.85,5.48ZM874.71,609.17v-15.54c-14.25,5.58-27.5,11.16-27.5,20.03,0,5.18,4.28,7.87,9.07,7.87,6.58,0,12.65-5.88,18.43-12.35ZM860.67,552.18l-12.15,14.74,12.15-21.62,12.15,21.62-12.15-14.74Z"/><path class="cls-2" d="M928.11,624.31v-13.35c-5.98,6.87-12.65,13.35-20.62,13.35-5.78,0-11.46-3.29-11.46-10.46,0-9.86,17.93-16.24,32.08-21.52v-4.78c0-6.97-5.28-12.65-12.75-12.65-2.79,0-5.08.7-7.87,2.29-5.88,3.39-4.58,12.65-8.87,12.65-1.59,0-2.69-1.29-2.69-2.99,0-5.98,15.44-14.45,22.22-14.45,7.67,0,14.15,5.68,14.15,14.74v31.68h8.67l-12.85,5.48ZM899.12,560.85c2.99-6.77,6.38-10.26,9.76-10.26,2.99,0,8.57,3.49,11.86,3.49s6.58-2.89,8.27-7.47c-1.3,7.07-4.68,11.46-9.07,11.46-3.09,0-8.77-3.59-12.05-3.59-2.89,0-6.08,2.39-8.77,6.38ZM928.11,609.17v-15.54c-14.25,5.58-27.5,11.16-27.5,20.03,0,5.18,4.28,7.87,9.07,7.87,6.58,0,12.65-5.88,18.43-12.35Z"/><path class="cls-2" d="M981.51,624.31v-13.35c-5.98,6.87-12.65,13.35-20.62,13.35-5.78,0-11.46-3.29-11.46-10.46,0-9.86,17.93-16.24,32.08-21.52v-4.78c0-6.97-5.28-12.65-12.75-12.65-2.79,0-5.08.7-7.87,2.29-5.88,3.39-4.58,12.65-8.87,12.65-1.59,0-2.69-1.29-2.69-2.99,0-5.98,15.44-14.45,22.22-14.45,7.67,0,14.15,5.68,14.15,14.74v31.68h8.67l-12.85,5.48ZM981.51,609.17v-15.54c-14.25,5.58-27.5,11.16-27.5,20.03,0,5.18,4.28,7.87,9.07,7.87,6.58,0,12.65-5.88,18.43-12.35ZM962.28,558.26h-7.27v-7.97h7.27v7.97ZM979.82,558.26h-7.27v-7.97h7.27v7.97Z"/><path class="cls-2" d="M1034.91,624.31v-13.35c-5.98,6.87-12.65,13.35-20.62,13.35-5.78,0-11.46-3.29-11.46-10.46,0-9.86,17.93-16.24,32.08-21.52v-4.78c0-6.97-5.28-12.65-12.75-12.65-2.79,0-5.08.7-7.87,2.29-5.88,3.39-4.58,12.65-8.87,12.65-1.59,0-2.69-1.29-2.69-2.99,0-5.98,15.44-14.45,22.22-14.45,7.67,0,14.15,5.68,14.15,14.74v31.68h8.67l-12.85,5.48ZM1034.91,609.17v-15.54c-14.25,5.58-27.5,11.16-27.5,20.03,0,5.18,4.28,7.87,9.07,7.87,6.58,0,12.65-5.88,18.43-12.35ZM1013.29,554.37c0-3.98,3.39-7.27,7.57-7.27s7.37,3.29,7.37,7.27-3.29,7.47-7.37,7.47-7.57-3.39-7.57-7.47ZM1015.48,554.47c0,2.99,2.39,5.38,5.28,5.38s5.38-2.39,5.38-5.38-2.39-5.38-5.38-5.38-5.28,2.39-5.28,5.38Z"/><path class="cls-2" d="M1088.31,624.31v-13.35c-5.98,6.87-12.65,13.35-20.62,13.35-5.78,0-11.46-3.29-11.46-10.46,0-9.86,17.93-16.24,32.08-21.52v-4.78c0-6.97-5.28-12.65-12.75-12.65-2.79,0-5.08.7-7.87,2.29-5.88,3.39-4.58,12.65-8.87,12.65-1.59,0-2.69-1.29-2.69-2.99,0-5.98,15.44-14.45,22.22-14.45,7.67,0,14.15,5.68,14.15,14.74v31.68h8.67l-12.85,5.48ZM1088.31,609.17v-15.54c-14.25,5.58-27.5,11.16-27.5,20.03,0,5.18,4.28,7.87,9.07,7.87,6.58,0,12.65-5.88,18.43-12.35Z"/><path class="cls-2" d="M1157.95,597.81c0,15.14-9.16,26.5-23.01,26.5-6.18,0-12.75-2.49-17.33-6.67l-3.98,6.67v-73.92h-8.37l12.65-7.17v37.06c5.48-3.49,12.75-7.87,18.73-7.87,12.85,0,21.32,10.46,21.32,25.4ZM1153.17,598.71c0-14.05-7.87-23.81-19.23-23.81-4.58,0-10.46,3.29-16.04,6.77v30.09c3.19,6.67,9.66,11.16,17.24,11.16,10.36,0,18.03-10.06,18.03-24.21Z"/><path class="cls-2" d="M1192.32,572.41c9.17,0,16.14,4.88,16.14,9.37,0,1.59-1,2.79-2.29,2.79-4.88,0-4.48-10.76-13.85-10.76-10.66,0-18.13,9.96-18.13,23.91s7.37,23.21,18.93,23.21c8.37,0,14.74-4.98,17.83-14.45-2.79,11.56-9.46,17.83-18.73,17.83-13.35,0-22.61-9.86-22.61-25.5s9.56-26.4,22.71-26.4Z"/><path class="cls-2" d="M1259.07,624.31v-7.87c-5.48,3.49-12.75,7.87-18.73,7.87-12.75,0-21.22-10.46-21.22-25.5s9.27-26.4,23.01-26.4c6.28,0,12.85,2.99,16.94,7.17v-29.19h-8.37l12.65-7.17v75.62h8.57l-12.85,5.48ZM1259.07,614.95v-24.71c-1.29-9.86-8.27-16.44-16.94-16.44-10.86,0-18.33,9.96-18.33,24.11s7.87,23.91,19.33,23.91c4.48,0,10.36-3.29,15.94-6.87Z"/><path class="cls-2" d="M1321.53,606.48c-2.79,11.56-9.46,17.83-18.73,17.83-13.35,0-22.62-9.86-22.62-25.5s9.56-26.4,22.32-26.4c10.76,0,18.03,7.57,18.03,18.93v.6h-35.27c-.3,1.79-.5,3.79-.5,5.78,0,13.75,7.37,23.21,18.93,23.21,8.37,0,14.74-4.98,17.83-14.45ZM1285.47,590.44h26.8c1.99,0,3.09-1,3.09-3.09,0-6.48-5.48-13.55-12.85-13.55-8.37,0-14.84,6.67-17.04,16.64Z"/><path class="cls-2" d="M1374.63,548.2c0,1.59-1.1,2.89-2.59,2.89-3.88,0-5.98-7.97-13.15-7.97-9.17,0-16.54,6.88-16.54,20.12v11.06h16.34v3.19h-16.34v42.34l9.86,3.29h-22.51l8.37-3.29v-42.34h-8.37l8.37-6.77v-7.97c0-12.55,9.46-21.32,22.91-21.32,7.87,0,13.65,3.09,13.65,6.77Z"/><path class="cls-2" d="M1410.5,629.69c0,11.96-16.74,21.92-27.5,21.92-12.35,0-22.51-6.67-22.51-15.54,0-5.48,4.58-10.06,11.16-11.96v-.9c-3.89-1.2-6.38-3.99-6.38-7.67,0-3.29,3.09-7.47,7.67-11.06-3.99-3.29-6.58-8.07-6.58-13.55,0-10.16,8.37-18.53,18.63-18.53,5.78,0,6.47,1.89,12.85,1.89h11.46v3.19h-11.56c3.49,3.39,5.68,8.17,5.68,13.45,0,9.86-8.27,17.83-18.43,17.83-4.19,0-7.97-1.29-11.06-3.49-2.99,2.19-4.98,5.48-4.98,8.27,0,3.79,3.09,6.38,7.47,6.38h21.32c7.57,0,12.75,3.89,12.75,9.76ZM1407.01,632.08c0-4.78-3.29-8.17-8.97-8.17h-19.93c-7.87,0-13.05,4.58-13.05,10.86,0,8.17,9.07,14.64,21.12,14.45,10.26-.2,20.82-8.07,20.82-17.14ZM1384.99,607.37c8.07,0,13.65-6.78,13.65-16.44,0-10.16-5.58-17.14-13.65-17.14s-13.95,6.97-13.95,17.14,5.68,16.44,13.95,16.44Z"/><path class="cls-2" d="M1470.77,623.12h-21.52l8.87-3.29v-32.28c0-6.97-5.28-12.75-12.45-12.75-4.48,0-10.66,3.29-16.24,6.77v38.26l9.86,3.29h-22.51l8.37-3.29v-69.44h-8.37l12.65-7.17v36.96c5.38-3.29,13.25-7.77,19.03-7.77,7.67,0,13.95,5.68,13.95,14.74v32.68l8.37,3.29Z"/><path class="cls-2" d="M1499.66,623.12h-21.52l8.37-3.29v-40.65h-8.47l12.75-6.77v47.42l8.87,3.29ZM1491.69,558.26h-7.97v-9.07h7.97v9.07Z"/><path class="cls-2" d="M1505.44,579.18l12.65-6.77v55.89c0,11.86-6.48,19.23-18.53,21.12,9.27-2.59,14.25-9.46,14.25-23.41v-46.82h-8.37ZM1519.38,549.19v9.07h-7.97v-9.07h7.97Z"/><path class="cls-2" d="M1544.19,595.22v24.61l8.37,3.29h-21.12l8.37-3.29v-69.44h-8.37l12.75-7.17v51.31h4.18l25.21-21.22h6.57l-30.38,21.72,34.87,28.09h-6.97l-33.47-27.89Z"/><path class="cls-2" d="M1611.14,623.12h-21.12l8.37-3.29v-69.44h-8.37l12.75-7.17v76.61l8.37,3.29Z"/><path class="cls-2" d="M1701.1,623.12h-21.52l8.87-3.29v-32.28c0-6.97-5.28-12.75-12.45-12.75-4.28,0-9.86,2.89-15.14,6.08.7,1.89,1.1,3.99,1.1,6.28v32.68l8.87,3.29h-22.02l8.87-3.29v-32.28c0-6.97-5.28-12.75-12.45-12.75-3.98,0-9.17,2.59-14.15,5.48v39.55l8.87,3.29h-21.52l8.37-3.29v-40.65h-8.37l12.65-6.77v6.48c5.18-3.09,11.86-6.48,16.94-6.48s9.96,2.69,12.35,7.37c5.28-3.19,12.85-7.37,18.43-7.37,7.67,0,13.95,5.68,13.95,14.74v32.68l8.37,3.29Z"/><path class="cls-2" d="M1762.37,623.12h-21.52l8.87-3.29v-32.28c0-6.97-5.28-12.75-12.45-12.75-4.48,0-10.66,3.49-16.24,6.97v38.06l8.87,3.29h-21.52l8.37-3.29v-40.65h-8.37l12.65-6.77v7.97c5.38-3.29,13.25-7.97,19.03-7.97,7.67,0,13.95,5.68,13.95,14.74v32.68l8.37,3.29Z"/><path class="cls-2" d="M735.34,687.91c0-14.05,11.16-25.5,23.91-25.5s23.81,11.46,23.81,25.5-11.16,26.4-23.81,26.4-23.91-11.86-23.91-26.4ZM777.98,687.91c0-13.95-7.77-24.01-18.73-24.01s-18.83,9.66-18.83,24.01,7.77,24.81,18.83,24.81,18.73-9.96,18.73-24.81Z"/><path class="cls-2" d="M843.53,687.81c0,15.14-9.17,26.5-22.91,26.5-6.08,0-12.45-2.39-17.04-6.48v26.3l9.86,3.29h-22.52l8.37-3.29v-64.56h-8.37l12.65-7.17v8.07c5.48-3.49,12.75-8.07,18.73-8.07,12.75,0,21.22,10.46,21.22,25.4ZM838.85,688.71c0-14.05-7.87-23.81-19.23-23.81-4.58,0-10.46,3.59-16.04,7.07v29.79c3.19,6.67,9.66,11.16,17.24,11.16,10.36,0,18.03-10.06,18.03-24.21Z"/><path class="cls-2" d="M907.29,737.42h-22.52l9.86-3.29v-27.89c-5.48,3.49-12.75,8.07-18.73,8.07-12.75,0-21.22-10.46-21.22-25.5s9.27-26.4,23.01-26.4c6.28,0,12.95,2.99,17.04,7.27l4.18-7.67v72.13l8.37,3.29ZM894.64,704.75v-24.51c-1.29-9.86-8.27-16.44-16.94-16.44-10.86,0-18.33,9.96-18.33,24.11s7.87,23.91,19.33,23.91c4.48,0,10.36-3.49,15.94-7.07Z"/><path class="cls-2" d="M946.54,666.79c0,1.69-1.1,2.99-2.89,2.99-3.49,0-4.28-3.59-7.97-3.59-4.18,0-8.07,4.58-10.66,7.57v36.06l9.86,3.29h-22.52l8.37-3.29v-40.65h-8.37l12.65-6.77v9.37c3.39-3.89,8.97-9.37,15.34-9.37,3.69,0,6.18,1.69,6.18,4.38Z"/><path class="cls-2" d="M974.73,712.82c6.48,0,11.26-4.58,11.26-11.26,0-14.74-28.99-8.97-28.99-26.5,0-7.07,6.38-12.65,15.64-12.65,4.68,0,10.56,1.49,13.85,3.39v1.59l1.99,12.55c-2.99-8.47-8.27-16.14-16.84-16.14-6.68,0-11.36,4.18-11.36,10.06,0,14.94,29.09,8.77,29.09,26.9,0,7.77-6.18,13.55-16.24,13.55-4.98,0-11.46-1.2-15.74-2.99v-1.59l-2.79-15.14c3.09,10.06,8.57,18.23,20.12,18.23Z"/><path class="cls-2" d="M1033.21,704.65c-3.99,6.28-8.87,9.66-14.55,9.66-6.87,0-11.76-4.08-11.56-11.66l.9-35.17h-10.36l9.46-6.77v-6.77l4.48-2.99v13.35h18.03v3.19h-18.03v34.47c0,6.08,3.89,9.17,8.77,9.17,5.18,0,9.56-2.29,12.85-6.48Z"/><path class="cls-2" d="M1078.74,714.31v-8.07c-5.48,3.49-12.85,8.07-18.93,8.07-7.67,0-13.95-5.68-13.95-14.74v-30.39h-7.67l11.95-6.77v36.76c0,6.97,5.28,12.75,12.25,12.75,4.68,0,10.76-3.49,16.34-7.07v-35.67h-7.67l11.96-6.77v46.42h8.57l-12.85,5.48Z"/><path class="cls-2" d="M1124.87,715.31l-21.62-48.82-7.87-3.19h22.81l-10.26,2.99,17.53,40.45h1.1l14.84-40.15-10.36-3.29h20.82l-8.47,3.39-18.53,48.62Z"/><path class="cls-2" d="M1210.05,715.31l-13.65-33.87-11.96,33.87-20.72-48.82-7.77-3.19h21.12l-8.67,2.99,16.74,40.45h.9l9.46-27.5-5.18-12.65-7.27-3.29h21.12l-9.17,3.29,15.74,40.15h.7l13.35-40.05-9.56-3.39h19.83l-8.27,3.29-16.74,48.72Z"/><path class="cls-2" d="M1295.43,713.12h-22.71l8.57-2.89-14.35-19.23h-1.3l-14.45,18.93,9.46,3.19h-21.72l9.96-3.39,16.54-20.72-16.84-22.61-8.07-3.09h22.32l-9.26,2.99,14.05,18.83h1.3l13.65-18.83-9.37-2.99h20.12l-8.67,3.29-15.54,20.52,17.13,22.91,9.17,3.09Z"/><path class="cls-2" d="M1329.8,713.02l-9.07,24.41h-6.08l13.25-24.01.1-.2-20.72-46.72-7.87-3.19h22.81l-10.26,2.99,17.53,40.45h1.1l14.84-40.15-10.36-3.29h20.82l-8.47,3.39-17.63,46.33Z"/><path class="cls-2" d="M1400.43,696.08l-1.99,15.44v1.59h-37.66l32.78-48.32h-23.31l-7.27,14.55,1.59-14.45v-1.59h34.87l-32.68,48.32h25.9l7.77-15.54Z"/><path class="cls-2" d="M761.34,803.12h-29.49l12.85-3.99v-62.76h-13.85l18.63-7.17v69.94l11.86,3.99Z"/><path class="cls-2" d="M814.04,798.73v4.38h-43.83c9.86-10.56,17.73-19.43,25.3-30.19,5.98-8.37,9.66-15.64,9.66-25.21,0-8.67-4.68-15.74-15.04-15.74-2.79,0-5.28.7-8.17,2.39-5.88,3.39-4.58,12.65-8.87,12.65-1.59,0-2.69-1.29-2.69-2.99,0-5.78,16.04-14.84,23.01-14.84,9.76,0,16.74,6.77,16.74,17.14,0,7.77-3.49,16.34-12.45,27.79-7.17,9.27-14.54,17.33-21.22,24.61h37.56Z"/><path class="cls-2" d="M870.43,782.89c0,12.55-9.17,21.42-22.42,21.42-8.97,0-24.31-9.26-24.31-15.14,0-1.69,1.1-2.89,2.59-2.89,4.58,0,2.79,9.17,8.77,12.65,2.49,1.5,6.58,2.49,10.76,2.49,11.46,0,19.63-7.57,19.63-18.53,0-9.66-8.17-17.04-18.93-17.04-2.09,0-5.18.4-8.67,1.2,16.74-9.96,22.02-14.84,22.02-23.41,0-6.67-5.28-11.86-12.35-11.86-2.79,0-5.28.8-8.17,2.49-5.88,3.39-4.58,12.55-8.77,12.55-1.49,0-2.59-1.2-2.59-2.89,0-5.68,15.34-14.75,22.32-14.75,8.37,0,14.35,6.18,14.35,13.55,0,8.47-7.77,14.54-19.92,21.42,1.79-.5,3.49-.8,5.88-.8,10.86,0,19.83,8.27,19.83,19.53Z"/><path class="cls-2" d="M922.33,779.9v19.23l11.86,3.99h-29.39l12.85-3.99v-19.23h-34.67l39.35-50.71v46.72h12.55v3.98h-12.55ZM917.65,775.92v-37.36l-29.49,37.36h29.49Z"/><path class="cls-2" d="M992.87,779.3c0,14.75-9.86,25.01-24.11,25.01-7.57,0-23.61-8.97-23.61-15.04,0-1.79,1.1-3.09,2.69-3.09,4.28,0,2.89,9.07,8.77,12.85,2.39,1.5,6.08,2.39,9.36,2.39,12.95,0,21.92-9.07,21.92-22.02.1-11.26-7.67-19.13-18.93-19.13-6.18,0-12.65,2.39-18.63,6.77l3.98-36.66h35.47v4.38h-33.97l-3.39,29.29c6.08-4.58,12.45-7.27,18.23-7.27,13.15,0,22.22,9.26,22.22,22.51Z"/><path class="cls-2" d="M1007.91,775.92c0-21.92,18.73-42.04,51.71-49.51-29.09,8.77-46.43,27.4-46.43,49.61,0,15.64,8.67,26.5,20.22,26.5,10.16,0,17.04-8.67,17.04-20.62s-7.67-20.12-18.83-20.12c-3.79,0-8.77,1.49-12.95,3.88,5.28-4.18,10.76-6.67,15.54-6.67,12.55,0,21.22,9.17,21.22,22.42s-9.56,22.91-22.71,22.91c-13.95,0-24.81-11.46-24.81-28.39Z"/><path class="cls-2" d="M1111.32,730.39l-34.77,72.73h-5.78l36.86-68.34h-42.74v-4.38h46.42Z"/><path class="cls-2" d="M1168.51,785.88c0,10.46-9.56,18.43-22.32,18.43-13.45,0-23.41-7.77-23.41-18.03,0-8.77,8.17-15.64,18.73-20.82-8.17-4.68-15.64-9.96-15.64-19.13s8.57-17.14,20.32-17.14,20.42,7.27,20.42,16.84c0,7.97-7.37,14.45-17.53,19.03,9.56,4.98,19.43,10.16,19.43,20.82ZM1163.43,786.58c0-9.46-9.76-14.45-19.33-19.73l-1.29-.7c-8.27,4.18-15.04,10.46-15.04,20.12s7.97,16.24,18.63,16.24c9.96,0,17.04-6.58,17.04-15.94ZM1146.69,763.76l1.2.6c6.97-3.39,13.75-9.56,13.75-18.43s-6.77-14.94-15.44-14.94-15.34,6.18-15.34,14.45c0,8.97,7.47,13.85,15.84,18.33Z"/><path class="cls-2" d="M1222.6,757.69c0-15.84-9.07-26.7-19.72-26.7s-17.63,8.67-17.63,20.32,8.07,20.22,18.93,20.22c3.79,0,8.77-1.49,12.95-3.89-5.28,4.18-10.76,6.67-15.54,6.67-12.25,0-21.12-9.26-21.12-22.42s9.07-22.71,22.52-22.71,24.91,11.46,24.91,28.59c0,21.32-14.35,42.44-48.42,48.92,29.39-7.77,43.14-27.4,43.14-49.02Z"/><path class="cls-2" d="M1265.44,729.19c13.35,0,24.11,16.84,24.11,37.46s-10.76,37.66-24.11,37.66-24.21-16.94-24.21-37.66,10.76-37.46,24.21-37.46ZM1265.44,802.42c11.16,0,18.83-14.94,18.83-35.77s-7.67-35.57-18.83-35.57-18.93,14.84-18.93,35.57,7.77,35.77,18.93,35.77Z"/><path class="cls-2" d="M746.4,884.65v9.26h-8.17v-9.26h8.17ZM745,819.19l-1.69,42.24c-.3,6.67-.5,13.25-1,19.92-.5-6.67-.7-13.25-1-19.92l-1.69-42.24h5.38Z"/><path class="cls-2" d="M831.67,886.24c-6.58,10.46-18.23,16.34-30.88,16.34-23.31,0-39.45-15.64-39.45-38.46s16.34-40.25,39.95-40.25c17.93,0,31.58,11.96,31.88,28.09.2,11.66-5.88,21.82-16.14,26.1l-8.87,3.69v-9.76c-4.48,5.08-9.46,9.76-15.34,9.76-4.68,0-8.97-2.49-8.97-7.87,0-7.47,13.65-12.25,24.31-16.34v-3.69c0-4.98-3.98-9.27-9.36-9.27-2.09,0-3.98.6-6.18,1.89-3.29,1.89-2.49,9.07-6.48,9.07-1.29,0-2.09-.9-2.09-2.09,0-4.38,11.96-11.16,16.84-11.06,6.08,0,10.76,4.28,10.76,11.16v24.31h2.69c8.77-4.48,14.94-14.05,14.65-25.9-.4-14.84-12.25-26.1-27.7-26.1-19.83,0-35.37,15.74-35.37,37.46s14.84,35.57,36.16,35.57c12.65,0,23.31-4.88,29.59-12.65ZM808.16,870.4v-11.66c-10.66,4.18-20.22,8.27-20.22,14.94,0,3.39,3.19,5.48,6.58,5.48,4.88,0,9.27-4.08,13.65-8.77Z"/><path class="cls-2" d="M885.67,845.4l-5.88,18.73h13.75v3.79h-14.94l-7.87,25.21h-2.19l7.87-25.21h-17.23l-7.87,25.21h-2.19l7.87-25.21h-13.55v-3.79h14.74l5.88-18.73h-13.55v-3.79h14.74l7.17-22.71h2.19l-7.17,22.71h17.24l7.17-22.71h2.19l-7.17,22.71h13.75v3.79h-14.94ZM883.48,845.4h-17.23l-5.88,18.73h17.24l5.88-18.73Z"/><path class="cls-2" d="M937.88,894.21v13.85h-2.19v-13.75h-.7c-1.39,0-2.89-.1-4.28-.2v13.95h-2.19v-14.25c-6.38-.8-12.45-2.69-15.94-4.28v-1.59l-1.99-16.54c2.99,12.15,9.96,18.13,17.93,20.22v-35.37c-8.77-3.69-16.64-8.27-16.64-19.13,0-8.97,6.87-16.04,16.64-17.63v-5.68h2.19v5.48c.7-.1,1.39-.1,2.09-.1,1,0,1.89,0,2.89.1v-5.48h2.19v5.68c4.98.6,10.26,2.09,14.74,4.28v1.59l2.79,15.44c-4.18-10.96-9.96-17.14-17.53-19.13v33.08c9.66,3.79,18.93,8.47,18.93,20.32,0,10.56-7.27,18.03-18.93,19.13ZM928.51,851.07v-29.69c-7.47,1.39-12.65,7.37-12.65,14.84s5.58,11.66,12.65,14.84ZM930.7,821.09v30.88c1.59.7,3.29,1.29,4.98,1.89v-32.58c-1.1-.2-2.29-.3-3.49-.3-.5,0-1,0-1.49.1ZM935.68,892.52v-33.47c-1.69-.7-3.29-1.3-4.98-1.89v34.97c1.59.3,3.29.4,4.98.4ZM952.82,876.28c0-8.97-6.87-13.05-14.94-16.34v32.48c8.87-.9,14.94-6.97,14.94-16.14Z"/><path class="cls-2" d="M975.33,834.54c0-8.47,4.88-15.34,11.36-15.34s11.26,6.87,11.26,15.34-4.78,15.54-11.26,15.54-11.36-6.97-11.36-15.54ZM1026.14,820.39h2.69l-49.21,72.73h-2.69l49.21-72.73ZM994.16,834.54c0-8.27-3.19-14.05-7.47-14.05s-7.57,5.78-7.57,14.05,3.19,14.25,7.57,14.25,7.47-5.88,7.47-14.25ZM1009.01,878.77c0-8.47,4.88-15.34,11.36-15.34s11.26,6.87,11.26,15.34-4.78,15.54-11.26,15.54-11.36-6.97-11.36-15.54ZM1027.84,878.77c0-8.27-3.19-14.05-7.47-14.05s-7.57,5.78-7.57,14.05,3.19,14.25,7.57,14.25,7.47-5.88,7.47-14.25Z"/><path class="cls-2" d="M1098.47,873.89l17.43,19.23h-6.48l-13.65-15.34c-9.07,10.76-18.33,16.54-26.6,16.54-11.56,0-19.53-6.77-19.53-16.64,0-8.57,8.07-17.73,21.82-27.1-6.48-7.47-9.96-12.55-9.96-18.53,0-7.37,6.38-12.85,14.94-12.85,8.07,0,14.25,4.88,14.25,11.36,0,5.68-3.29,10.66-14.45,18.63.7.9,1.49,1.79,2.39,2.69l18.63,20.62c3.69-6.28,5.78-14.05,6.87-21.42l-8.97-2.99h23.01l-9.27,3.29c-2.29,7.47-5.38,15.14-10.46,22.52ZM1094.59,876.48l-20.72-23.21-1.39-1.49c-10.76,8.07-17.93,16.24-17.93,24.81s6.77,14.35,16.54,14.35c7.97,0,16.14-5.18,23.51-14.45ZM1066.19,831.05c0,5.38,2.89,9.96,9.17,17.14,8.87-7.27,10.66-12.05,10.66-17.33,0-5.88-4.18-10.26-9.56-10.26-5.78,0-10.26,4.48-10.26,10.46Z"/><path class="cls-2" d="M1149.88,846.79l-11.06-9.17-1.2,14.25-1.29-14.25-10.96,9.17,9.17-11.06-14.25-1.2,14.25-1.29-9.17-10.96,11.06,9.17,1.2-14.25,1.29,14.25,10.96-9.17-9.17,11.06,14.25,1.2-14.25,1.29,9.17,10.96Z"/><path class="cls-2" d="M1159.64,865.92c0-16.84,6.97-36.36,18.83-52.8-8.07,13.55-13.65,35.17-13.65,52.8,0,21.82,5.18,43.93,12.55,53.9-11.16-12.75-17.73-32.68-17.73-53.9Z"/><path class="cls-2" d="M1202.68,865.92c0-17.63-5.58-39.25-13.65-52.8,11.86,16.44,18.83,35.96,18.83,52.8,0,21.22-6.57,41.14-17.73,53.9,7.37-9.96,12.55-32.08,12.55-53.9Z"/><path class="cls-2" d="M1261.76,863.03h-19.73v17.73h-2.19v-17.73h-19.72v-2.19h19.72v-17.63h2.19v17.63h19.73v2.19Z"/><path class="cls-2" d="M831.08,962.59l-3.19,18.93v1.59h-56.19l9.86-4.28v-22.02h-24.91l-12.75,22.42,11.66,3.89h-23.51l9.36-4.08,38.26-66.85v-1.79h44.53v1.59l2.99,16.34-9.17-16.14h-31.68v31.58h20.42l4.88-10.86v23.61l-4.88-10.96h-20.42v35.77h35.37l9.36-18.73ZM781.56,955.02v-40.65h-.8l-23.11,40.65h23.91Z"/><path class="cls-2" d="M905.2,961.7l-3.29,16.44v1.59c-6.08,2.99-13.95,4.68-22.61,4.58h-.8l-2.69,5.68,5.58,3.39c2.29,1.39,3.39,3.29,3.39,5.48,0,4.78-5.18,9.56-13.45,10.66,5.78-1.79,9.76-4.88,9.76-8.67,0-2.09-1.1-3.19-3.09-4.38l-6.38-3.89,5.38-8.37c-18.53-1.29-33.87-17.83-33.87-38.06s16.34-36.96,35.47-36.96c8.67-.1,16.54,1.59,22.62,4.58v1.59l2.69,14.25c-5.08-12.35-13.15-18.53-25.3-18.43-17.83,0-29.89,14.74-29.89,34.97s12.05,36.16,30.58,36.16c12.15.1,20.22-6.08,25.9-20.62Z"/><path class="cls-2" d="M975.13,962.59l-3.19,18.93v1.59h-56.79l9.86-4.28v-64.16l-9.86-4.28h53.1v1.59l2.99,16.34-9.17-16.14h-32.28v31.58h21.02l4.88-10.86v23.61l-4.88-10.96h-21.02v35.77h35.96l9.36-18.73ZM947.54,904.01l-17.04-17.93h6.38l10.66,17.93Z"/><path class="cls-2" d="M1041.68,970.16c0,8.37-6.38,14.15-16.44,14.15-4.98,0-11.46-1.2-15.74-2.99v-1.59l-2.79-15.14c3.09,10.06,8.57,18.23,19.83,18.23,6.77,0,11.56-4.58,11.56-11.26,0-8.57-9.46-11.86-16.64-16.64-4.58-2.99-8.27-6.48-8.27-12.25,0-9.37,14.74-15.04,14.74-27.3,0-6.38-4.88-11.36-12.75-11.36-9.86,0-16.94,6.67-16.94,20.12v55.69l8.37,3.29h-21.02l8.37-3.29v-42.34h-8.37l8.37-6.77v-7.57c0-12.25,9.36-20.72,22.71-20.72,9.07,0,15.94,4.78,15.94,11.66,0,10.56-16.04,17.43-16.04,27.1,0,4.68,3.09,7.67,7.07,10.26,7.47,4.78,18.03,8.17,18.03,18.73Z"/><path class="cls-2" d="M1128.06,966.48c-2.79,11.56-9.46,17.83-18.73,17.83-10.36,0-18.23-5.88-21.22-15.84-6.58,7.67-13.85,15.84-22.81,15.84-5.78,0-11.46-3.29-11.46-10.46,0-9.86,17.73-15.94,31.88-21.32v-4.98c0-6.97-5.28-12.65-12.75-12.65-2.79,0-5.08.7-7.87,2.29-5.88,3.39-4.58,12.65-8.87,12.65-1.59,0-2.69-1.29-2.69-2.99,0-5.98,15.44-14.45,22.22-14.45s13.05,4.78,14.05,12.45c3.79-7.67,10.76-12.45,19.23-12.45,10.76,0,18.03,7.57,18.03,18.93v.6h-35.27c-.3,1.79-.5,3.79-.5,5.78,0,13.75,7.37,23.21,18.93,23.21,8.37,0,14.74-4.98,17.83-14.45ZM1085.72,969.47v-15.74c-14.15,5.58-27.3,11.06-27.3,19.93,0,5.18,4.28,7.87,9.07,7.87,6.48,0,12.45-5.68,18.23-12.05ZM1091.99,950.44h26.8c1.99,0,3.09-1,3.09-3.09,0-6.48-5.48-13.55-12.85-13.55-8.37,0-14.84,6.67-17.04,16.64Z"/><path class="cls-2" d="M1161.03,984.31l-2.69,5.68,5.58,3.39c2.29,1.39,3.39,3.29,3.39,5.48,0,4.78-5.18,9.56-13.45,10.66,5.78-1.79,9.76-4.88,9.76-8.67,0-2.09-1.1-3.19-3.09-4.38l-6.38-3.89,5.38-8.37c-12.35-.8-20.82-10.46-20.82-25.4s9.56-26.4,22.71-26.4c9.17,0,16.14,4.88,16.14,9.37,0,1.59-1,2.79-2.29,2.79-4.88,0-4.48-10.76-13.85-10.76-10.66,0-18.13,9.96-18.13,23.91s7.37,23.21,18.93,23.21c8.37,0,14.75-4.98,17.83-14.45-2.79,11.56-9.46,17.83-18.73,17.83h-.3Z"/><path class="cls-2" d="M1642.97,982.38h-99.07l42.73-14.75-36.3-85.08h-124.78l-34.79,84.7,44.62,15.12h-89.24l35.17-15.12,101.72-241.62-15.12-19.28,26.47-4.54,111.93,265.07,36.68,15.5ZM1547.69,875.75l-58.61-138.4h-3.78l-57.1,138.4h119.49Z"/><path class="cls-2" d="M1792.71,986.92v-50.67c-22.69,26.09-48.02,50.67-78.27,50.67-21.93,0-43.48-12.48-43.48-39.7,0-37.43,68.06-61.63,121.76-81.68v-18.15c0-26.47-20.04-48.02-48.4-48.02-10.59,0-19.29,2.65-29.87,8.7-22.31,12.86-17.39,48.02-33.65,48.02-6.05,0-10.21-4.92-10.21-11.34,0-22.69,58.61-54.83,84.32-54.83,29.12,0,53.69,21.55,53.69,55.96v120.24h32.9l-48.78,20.8ZM1792.71,929.44v-58.99c-54.07,21.17-104.36,42.35-104.36,76,0,19.66,16.26,29.87,34.41,29.87,24.96,0,48.02-22.31,69.95-46.89Z"/><path class="cls-2" d="M74.96,322.17v-12.6h6.99v.92h-5.87v4.72h5.51v.92h-5.51v5.13h6.01v.92h-7.13Z"/><path class="cls-2" d="M85.13,310.07c.45,0,.76.32.76.76s-.31.74-.76.74-.76-.32-.76-.74.31-.76.76-.76ZM84.59,313.72h1.08v8.44h-1.08v-8.44Z"/><path class="cls-2" d="M90.98,317.45l-1.13,1.06v3.66h-1.08v-12.6h1.08v7.69l3.83-3.53h1.35l-3.26,3.06,3.87,5.38h-1.3l-3.37-4.72Z"/><path class="cls-2" d="M104.11,317.96c0,2.48-1.35,4.43-3.91,4.43s-3.91-1.94-3.91-4.43,1.35-4.45,3.91-4.45,3.91,1.96,3.91,4.45ZM97.41,317.96c0,1.93.92,3.55,2.79,3.55s2.79-1.62,2.79-3.55-.92-3.57-2.79-3.57-2.79,1.62-2.79,3.57Z"/><path class="cls-2" d="M111.38,310.07c.45,0,.76.32.76.76s-.31.74-.76.74-.76-.32-.76-.74.31-.76.76-.76ZM110.84,313.72h1.08v8.44h-1.08v-8.44Z"/><path class="cls-2" d="M117.55,322.38c-1.89,0-3.21-.88-3.37-2.67l1.04-.13c.07,1.1.77,1.95,2.34,1.95,1.42,0,2.2-.67,2.2-1.62s-.63-1.37-2.27-1.58c-1.91-.25-3.06-.85-3.06-2.39s1.46-2.43,3.01-2.43c1.78,0,3.02.88,3.22,2.32l-1.06.23c-.16-1.1-.83-1.71-2.2-1.71-1.04,0-1.89.56-1.89,1.51.02.95.61,1.31,2.29,1.55,1.85.25,3.04.83,3.04,2.41,0,1.49-1.21,2.56-3.29,2.56Z"/><path class="cls-2" d="M132.44,320.93c-.45.72-1.55,1.46-3.02,1.46-1.64,0-2.67-.88-2.67-2.34,0-2.16,2.61-2.86,5.69-2.86v-.65c0-1.22-.65-2.14-2.12-2.14-1.39,0-2.05.77-2.14,1.84l-1.1-.16c.22-1.69,1.64-2.56,3.28-2.56,2,0,3.15,1.19,3.15,2.92v4.47c0,.56.09.97.2,1.28h-1.06c-.11-.22-.22-.7-.2-1.24ZM132.44,318.82v-.79c-2.7,0-4.59.58-4.59,1.96,0,.94.7,1.53,1.76,1.53,1.51,0,2.83-.99,2.83-2.7Z"/><path class="cls-2" d="M136.43,313.72h.99v1.4c.41-.85,1.48-1.62,2.92-1.62,1.64,0,2.86.97,2.86,2.88v5.78h-1.08v-5.56c0-1.46-.86-2.18-2-2.18-1.4,0-2.61,1.13-2.61,2.77v4.97h-1.08v-8.44Z"/><path class="cls-2" d="M151.07,310.07c.45,0,.76.32.76.76s-.31.74-.76.74-.76-.32-.76-.74.31-.76.76-.76ZM150.52,313.72h1.08v8.44h-1.08v-8.44Z"/><path class="cls-2" d="M154.7,313.72h.99v1.4c.41-.85,1.48-1.62,2.92-1.62,1.64,0,2.86.97,2.86,2.88v5.78h-1.08v-5.56c0-1.46-.86-2.18-2-2.18-1.4,0-2.61,1.13-2.61,2.77v4.97h-1.08v-8.44Z"/><path class="cls-2" d="M167.55,313.51c1.42,0,2.38.72,2.84,1.49v-5.44h1.08v12.6h-.99v-1.4c-.41.81-1.48,1.62-2.9,1.62-2.18,0-3.8-1.76-3.8-4.45s1.62-4.43,3.76-4.43ZM167.66,321.48c1.33,0,2.74-1.08,2.74-2.93v-1.21c0-1.85-1.42-2.94-2.74-2.94-1.71,0-2.75,1.53-2.75,3.53s1.04,3.55,2.75,3.55Z"/><path class="cls-2" d="M175.11,310.07c.45,0,.76.32.76.76s-.31.74-.76.74-.76-.32-.76-.74.31-.76.76-.76ZM174.57,313.72h1.08v8.44h-1.08v-8.44Z"/><path class="cls-2" d="M181.29,322.38c-1.89,0-3.21-.88-3.37-2.67l1.04-.13c.07,1.1.77,1.95,2.34,1.95,1.42,0,2.2-.67,2.2-1.62s-.63-1.37-2.27-1.58c-1.91-.25-3.06-.85-3.06-2.39s1.46-2.43,3.01-2.43c1.78,0,3.02.88,3.22,2.32l-1.06.23c-.16-1.1-.83-1.71-2.2-1.71-1.04,0-1.89.56-1.89,1.51.02.95.61,1.31,2.29,1.55,1.85.25,3.04.83,3.04,2.41,0,1.49-1.21,2.56-3.29,2.56Z"/><path class="cls-2" d="M190.85,322.38c-1.42,0-2.38-.72-2.84-1.49v4.88h-1.08v-12.05h.99v1.4c.41-.81,1.48-1.62,2.9-1.62,2.18,0,3.8,1.76,3.8,4.45s-1.62,4.43-3.76,4.43ZM190.74,314.41c-1.33,0-2.74,1.08-2.74,2.94v1.21c0,1.85,1.42,2.93,2.74,2.93,1.71,0,2.75-1.53,2.75-3.53s-1.04-3.55-2.75-3.55Z"/><path class="cls-2" d="M203.63,322.17h-.99v-1.4c-.4.86-1.46,1.62-2.88,1.62-1.62,0-2.83-.97-2.83-2.88v-5.78h1.08v5.56c0,1.46.85,2.18,1.96,2.18,1.39,0,2.57-1.1,2.57-2.74v-5h1.08v8.44Z"/><path class="cls-2" d="M210.28,322.01c-.27.22-.83.38-1.42.38-1.22,0-1.84-.72-1.84-1.93v-5.89h-1.46v-.85h1.46v-2.45l1.08-.5v2.95h2v.85h-2v5.74c0,.72.27,1.15.9,1.15.29,0,.63-.11.86-.32l.41.86Z"/><path class="cls-2" d="M217.25,320.93c-.45.72-1.55,1.46-3.02,1.46-1.64,0-2.67-.88-2.67-2.34,0-2.16,2.61-2.86,5.69-2.86v-.65c0-1.22-.65-2.14-2.12-2.14-1.39,0-2.05.77-2.14,1.84l-1.1-.16c.22-1.69,1.64-2.56,3.28-2.56,2,0,3.15,1.19,3.15,2.92v4.47c0,.56.09.97.2,1.28h-1.06c-.11-.22-.22-.7-.2-1.24ZM217.25,318.82v-.79c-2.7,0-4.59.58-4.59,1.96,0,.94.7,1.53,1.76,1.53,1.51,0,2.83-.99,2.83-2.7Z"/><path class="cls-2" d="M225.13,322.38c-1.42,0-2.48-.81-2.9-1.62v1.4h-.99v-12.6h1.08v5.44c.47-.77,1.42-1.49,2.84-1.49,2.14,0,3.76,1.76,3.76,4.43s-1.62,4.45-3.8,4.45ZM225.06,314.41c-1.31,0-2.74,1.08-2.74,2.94v1.21c0,1.85,1.4,2.93,2.74,2.93,1.71,0,2.75-1.53,2.75-3.55s-1.04-3.53-2.75-3.53Z"/><path class="cls-2" d="M231.34,309.57h1.08v12.6h-1.08v-12.6Z"/><path class="cls-2" d="M242.07,320.19c-.61,1.31-1.67,2.2-3.35,2.2-2.5,0-3.89-1.94-3.89-4.46s1.37-4.41,3.83-4.41,3.64,2.02,3.64,4.09v.45h-6.39c.09,1.89.92,3.47,2.81,3.47,1.33,0,1.93-.67,2.43-1.73l.92.4ZM235.99,317.18h5.2c-.09-1.73-1.1-2.81-2.57-2.81s-2.47,1.19-2.63,2.81Z"/><path class="cls-2" d="M251.41,322.38c-1.89,0-3.21-.88-3.37-2.67l1.04-.13c.07,1.1.77,1.95,2.34,1.95,1.42,0,2.2-.67,2.2-1.62s-.63-1.37-2.27-1.58c-1.91-.25-3.06-.85-3.06-2.39s1.46-2.43,3.01-2.43c1.78,0,3.02.88,3.22,2.32l-1.06.23c-.16-1.1-.83-1.71-2.2-1.71-1.04,0-1.89.56-1.89,1.51.02.95.61,1.31,2.29,1.55,1.85.25,3.04.83,3.04,2.41,0,1.49-1.21,2.56-3.29,2.56Z"/><path class="cls-2" d="M260.52,322.01c-.27.22-.83.38-1.42.38-1.22,0-1.84-.72-1.84-1.93v-5.89h-1.46v-.85h1.46v-2.45l1.08-.5v2.95h2v.85h-2v5.74c0,.72.27,1.15.9,1.15.29,0,.63-.11.86-.32l.41.86Z"/><path class="cls-2" d="M267.49,320.93c-.45.72-1.55,1.46-3.02,1.46-1.64,0-2.66-.88-2.66-2.34,0-2.16,2.61-2.86,5.69-2.86v-.65c0-1.22-.65-2.14-2.12-2.14-1.39,0-2.05.77-2.14,1.84l-1.1-.16c.22-1.69,1.64-2.56,3.28-2.56,2,0,3.15,1.19,3.15,2.92v4.47c0,.56.09.97.2,1.28h-1.06c-.11-.22-.22-.7-.2-1.24ZM267.49,318.82v-.79c-2.7,0-4.59.58-4.59,1.96,0,.94.7,1.53,1.76,1.53,1.51,0,2.83-.99,2.83-2.7Z"/><path class="cls-2" d="M274.87,322.01c-.27.22-.83.38-1.42.38-1.22,0-1.84-.72-1.84-1.93v-5.89h-1.46v-.85h1.46v-2.45l1.08-.5v2.95h2v.85h-2v5.74c0,.72.27,1.15.9,1.15.29,0,.63-.11.86-.32l.41.86Z"/><path class="cls-2" d="M283.27,320.19c-.61,1.31-1.67,2.2-3.35,2.2-2.5,0-3.89-1.94-3.89-4.46s1.37-4.41,3.83-4.41,3.64,2.02,3.64,4.09v.45h-6.39c.09,1.89.92,3.47,2.81,3.47,1.33,0,1.93-.67,2.43-1.73l.92.4ZM277.19,317.18h5.2c-.09-1.73-1.1-2.81-2.57-2.81s-2.47,1.19-2.63,2.81Z"/><path class="cls-2" d="M291.09,316.61c0-1.46-.81-2.18-1.85-2.18-1.3,0-2.39,1.19-2.39,2.88v4.86h-1.08v-8.44h.99v1.4c.38-.86,1.37-1.62,2.7-1.62,1.15,0,2.09.54,2.5,1.6.56-.9,1.42-1.6,2.83-1.6,1.55,0,2.72.97,2.72,2.88v5.78h-1.08v-5.56c0-1.46-.81-2.18-1.85-2.18-1.26,0-2.39,1.19-2.39,2.79v4.95h-1.08v-5.56Z"/><path class="cls-2" d="M307.05,320.19c-.61,1.31-1.67,2.2-3.35,2.2-2.5,0-3.89-1.94-3.89-4.46s1.37-4.41,3.83-4.41,3.64,2.02,3.64,4.09v.45h-6.39c.09,1.89.92,3.47,2.81,3.47,1.33,0,1.93-.67,2.43-1.73l.92.4ZM300.97,317.18h5.2c-.09-1.73-1.1-2.81-2.57-2.81s-2.47,1.19-2.63,2.81Z"/><path class="cls-2" d="M309.53,313.72h.99v1.4c.41-.85,1.48-1.62,2.92-1.62,1.64,0,2.86.97,2.86,2.88v5.78h-1.08v-5.56c0-1.46-.86-2.18-2-2.18-1.4,0-2.61,1.13-2.61,2.77v4.97h-1.08v-8.44Z"/><path class="cls-2" d="M322.69,322.01c-.27.22-.83.38-1.42.38-1.22,0-1.84-.72-1.84-1.93v-5.89h-1.46v-.85h1.46v-2.45l1.08-.5v2.95h2v.85h-2v5.74c0,.72.27,1.15.9,1.15.29,0,.63-.11.86-.32l.41.86Z"/><path class="cls-2" d="M336.18,317.96c0,2.48-1.35,4.43-3.91,4.43s-3.91-1.94-3.91-4.43,1.35-4.45,3.91-4.45,3.91,1.96,3.91,4.45ZM329.48,317.96c0,1.93.92,3.55,2.79,3.55s2.79-1.62,2.79-3.55-.92-3.57-2.79-3.57-2.79,1.62-2.79,3.57Z"/><path class="cls-2" d="M338.71,313.72v-1.78c0-1.8,1.12-2.59,2.48-2.59.68,0,1.39.2,1.85.52l-.49.85c-.23-.16-.68-.45-1.31-.45-.9,0-1.46.65-1.46,1.69v1.76h2.02v.85h-2.02v7.6h-1.08v-7.6h-1.46v-.85h1.46Z"/><path class="cls-2" d="M354.71,320.19c-.61,1.31-1.67,2.2-3.35,2.2-2.5,0-3.89-1.94-3.89-4.46s1.37-4.41,3.83-4.41,3.64,2.02,3.64,4.09v.45h-6.39c.09,1.89.92,3.47,2.81,3.47,1.33,0,1.93-.67,2.43-1.73l.92.4ZM348.63,317.18h5.2c-.09-1.73-1.1-2.81-2.57-2.81s-2.47,1.19-2.63,2.81Z"/><path class="cls-2" d="M357.2,309.57h1.08v12.6h-1.08v-12.6Z"/><path class="cls-2" d="M367.93,320.19c-.61,1.31-1.67,2.2-3.35,2.2-2.5,0-3.89-1.94-3.89-4.46s1.37-4.41,3.83-4.41,3.64,2.02,3.64,4.09v.45h-6.39c.09,1.89.92,3.47,2.81,3.47,1.33,0,1.93-.67,2.43-1.73l.92.4ZM361.84,317.18h5.2c-.09-1.73-1.1-2.81-2.57-2.81s-2.47,1.19-2.63,2.81Z"/><path class="cls-2" d="M372.35,321l2.47.23c2.11.2,2.63,1.03,2.63,2.05,0,1.73-1.73,2.68-4.12,2.68s-3.69-.77-3.69-2.25c0-1.01.56-1.67,1.33-2.04-.65-.27-.95-.77-.95-1.35,0-.72.49-1.24,1.24-1.42-.61-.4-1.19-1.15-1.19-2.32,0-1.98,1.58-3.08,3.35-3.08.76,0,1.48.22,2.05.59.36-.45.81-.77,1.53-.77.32,0,.61.05.83.14l-.22.86c-.16-.13-.41-.2-.68-.2-.47,0-.76.23-.9.43.45.5.74,1.17.74,1.98,0,1.91-1.58,2.99-3.35,2.99-.79,0-1.15-.22-1.42-.22-.45,0-.97.36-.97.83,0,.56.5.76,1.33.85ZM376.42,323.43c0-.83-.5-1.1-1.8-1.24l-2.81-.25c-.68.27-1.13.92-1.13,1.64,0,1.04,1.01,1.62,2.68,1.62,1.82,0,3.06-.76,3.06-1.76ZM373.42,318.77c1.26,0,2.27-.85,2.27-2.21s-1.03-2.27-2.27-2.27-2.27.85-2.27,2.27,1.01,2.21,2.27,2.21Z"/><path class="cls-2" d="M384.32,320.93c-.45.72-1.55,1.46-3.02,1.46-1.64,0-2.67-.88-2.67-2.34,0-2.16,2.61-2.86,5.69-2.86v-.65c0-1.22-.65-2.14-2.12-2.14-1.39,0-2.05.77-2.14,1.84l-1.1-.16c.22-1.69,1.64-2.56,3.28-2.56,2,0,3.15,1.19,3.15,2.92v4.47c0,.56.09.97.2,1.28h-1.06c-.11-.22-.22-.7-.2-1.24ZM384.32,318.82v-.79c-2.7,0-4.59.58-4.59,1.96,0,.94.7,1.53,1.76,1.53,1.51,0,2.83-.99,2.83-2.7Z"/><path class="cls-2" d="M388.32,313.72h.99v1.4c.41-.85,1.48-1.62,2.92-1.62,1.64,0,2.86.97,2.86,2.88v5.78h-1.08v-5.56c0-1.46-.86-2.18-2-2.18-1.4,0-2.61,1.13-2.61,2.77v4.97h-1.08v-8.44Z"/><path class="cls-2" d="M401.28,313.51c1.75,0,2.74.92,3.21,2.18l-.99.42c-.31-.99-.97-1.69-2.25-1.69-1.76,0-2.72,1.55-2.72,3.53s.97,3.55,2.72,3.55c1.35,0,1.89-.77,2.27-1.67l.99.4c-.61,1.31-1.58,2.18-3.26,2.18-2.48,0-3.83-1.96-3.83-4.45s1.31-4.43,3.87-4.43Z"/><path class="cls-2" d="M413.16,320.19c-.61,1.31-1.67,2.2-3.35,2.2-2.5,0-3.89-1.94-3.89-4.46s1.37-4.41,3.83-4.41,3.64,2.02,3.64,4.09v.45h-6.39c.09,1.89.92,3.47,2.81,3.47,1.33,0,1.93-.67,2.43-1.73l.92.4ZM407.07,317.18h5.2c-.09-1.73-1.1-2.81-2.57-2.81s-2.47,1.19-2.63,2.81Z"/><path class="cls-2" d="M424.89,320.93c-.45.72-1.55,1.46-3.02,1.46-1.64,0-2.67-.88-2.67-2.34,0-2.16,2.61-2.86,5.69-2.86v-.65c0-1.22-.65-2.14-2.12-2.14-1.39,0-2.05.77-2.14,1.84l-1.1-.16c.22-1.69,1.64-2.56,3.28-2.56,2,0,3.15,1.19,3.15,2.92v4.47c0,.56.09.97.2,1.28h-1.06c-.11-.22-.22-.7-.2-1.24ZM424.89,318.82v-.79c-2.7,0-4.59.58-4.59,1.96,0,.94.7,1.53,1.76,1.53,1.51,0,2.83-.99,2.83-2.7Z"/><path class="cls-2" d="M428.89,313.72h.99v1.4c.41-.85,1.48-1.62,2.92-1.62,1.64,0,2.86.97,2.86,2.88v5.78h-1.08v-5.56c0-1.46-.86-2.18-2-2.18-1.4,0-2.61,1.13-2.61,2.77v4.97h-1.08v-8.44Z"/><path class="cls-2" d="M441.74,313.51c1.42,0,2.38.72,2.84,1.49v-5.44h1.08v12.6h-.99v-1.4c-.41.81-1.48,1.62-2.9,1.62-2.18,0-3.8-1.76-3.8-4.45s1.62-4.43,3.76-4.43ZM441.85,321.48c1.33,0,2.74-1.08,2.74-2.93v-1.21c0-1.85-1.42-2.94-2.74-2.94-1.71,0-2.75,1.53-2.75,3.53s1.04,3.55,2.75,3.55Z"/><path class="cls-2" d="M457.42,314.73c-.2-.16-.47-.31-1.01-.31-1.13,0-2.25,1.15-2.25,2.93v4.81h-1.08v-8.44h.99v1.42c.36-.88,1.33-1.64,2.56-1.64.41,0,.85.07,1.1.22l-.31,1.01Z"/><path class="cls-2" d="M465.74,320.19c-.61,1.31-1.67,2.2-3.35,2.2-2.5,0-3.89-1.94-3.89-4.46s1.37-4.41,3.83-4.41,3.64,2.02,3.64,4.09v.45h-6.39c.09,1.89.92,3.47,2.81,3.47,1.33,0,1.93-.67,2.43-1.73l.92.4ZM459.65,317.18h5.2c-.09-1.73-1.1-2.81-2.57-2.81s-2.47,1.19-2.63,2.81Z"/><path class="cls-2" d="M468.34,313.72v-1.78c0-1.8,1.04-2.59,2.29-2.59.59,0,1.21.2,1.6.5l-.47.86c-.18-.16-.56-.45-1.1-.45-.76,0-1.24.65-1.24,1.69v1.76h1.93v.85h-1.93v7.6h-1.08v-7.6h-1.46v-.85h1.46ZM474.02,310.07c.45,0,.76.32.76.76s-.31.74-.76.74-.76-.32-.76-.74.31-.76.76-.76ZM473.48,313.72h1.08v8.44h-1.08v-8.44Z"/><path class="cls-2" d="M477.65,313.72h.99v1.4c.41-.85,1.48-1.62,2.92-1.62,1.64,0,2.86.97,2.86,2.88v5.78h-1.08v-5.56c0-1.46-.86-2.18-2-2.18-1.4,0-2.61,1.13-2.61,2.77v4.97h-1.08v-8.44Z"/><path class="cls-2" d="M493.98,320.19c-.61,1.31-1.67,2.2-3.35,2.2-2.5,0-3.89-1.94-3.89-4.46s1.37-4.41,3.83-4.41,3.64,2.02,3.64,4.09v.45h-6.39c.09,1.89.92,3.47,2.81,3.47,1.33,0,1.93-.67,2.43-1.73l.92.4ZM487.89,317.18h5.2c-.09-1.73-1.1-2.81-2.57-2.81s-2.47,1.19-2.63,2.81Z"/><path class="cls-2" d="M501.79,316.61c0-1.46-.81-2.18-1.85-2.18-1.3,0-2.39,1.19-2.39,2.88v4.86h-1.08v-8.44h.99v1.4c.38-.86,1.37-1.62,2.7-1.62,1.15,0,2.09.54,2.5,1.6.56-.9,1.42-1.6,2.83-1.6,1.55,0,2.72.97,2.72,2.88v5.78h-1.08v-5.56c0-1.46-.81-2.18-1.85-2.18-1.26,0-2.39,1.19-2.39,2.79v4.95h-1.08v-5.56Z"/><path class="cls-2" d="M517.76,320.19c-.61,1.31-1.67,2.2-3.35,2.2-2.5,0-3.89-1.94-3.89-4.46s1.37-4.41,3.83-4.41,3.64,2.02,3.64,4.09v.45h-6.39c.09,1.89.92,3.47,2.81,3.47,1.33,0,1.93-.67,2.43-1.73l.92.4ZM511.67,317.18h5.2c-.09-1.73-1.1-2.81-2.57-2.81s-2.47,1.19-2.63,2.81Z"/><path class="cls-2" d="M520.24,313.72h.99v1.4c.41-.85,1.48-1.62,2.92-1.62,1.64,0,2.86.97,2.86,2.88v5.78h-1.08v-5.56c0-1.46-.86-2.18-2-2.18-1.4,0-2.61,1.13-2.61,2.77v4.97h-1.08v-8.44Z"/><path class="cls-2" d="M533.4,322.01c-.27.22-.83.38-1.42.38-1.22,0-1.84-.72-1.84-1.93v-5.89h-1.46v-.85h1.46v-2.45l1.08-.5v2.95h2v.85h-2v5.74c0,.72.27,1.15.9,1.15.29,0,.63-.11.86-.32l.41.86Z"/><path class="cls-2" d="M536.91,321.47c0,.45-.36.81-.83.81s-.83-.36-.83-.81.36-.81.83-.81.83.36.83.81Z"/><path class="cls-2" d="M74.96,343.77v-12.6h6.99v.92h-5.87v4.72h5.51v.92h-5.51v5.13h6.01v.92h-7.13Z"/><path class="cls-2" d="M82.94,335.32h1.15s2.34,6.19,2.72,7.4h.04c.38-1.21,2.7-7.4,2.7-7.4h1.08l-3.29,8.44h-1.1l-3.29-8.44Z"/><path class="cls-2" d="M98.98,341.79c-.61,1.31-1.67,2.2-3.35,2.2-2.5,0-3.89-1.94-3.89-4.46s1.37-4.41,3.83-4.41,3.64,2.02,3.64,4.09v.45h-6.39c.09,1.89.92,3.47,2.81,3.47,1.33,0,1.93-.67,2.43-1.73l.92.4ZM92.89,338.78h5.2c-.09-1.73-1.1-2.81-2.57-2.81s-2.47,1.19-2.63,2.81Z"/><path class="cls-2" d="M105.8,336.33c-.2-.16-.47-.31-1.01-.31-1.13,0-2.25,1.15-2.25,2.93v4.81h-1.08v-8.44h.99v1.42c.36-.88,1.33-1.64,2.56-1.64.41,0,.85.07,1.1.22l-.31,1.01Z"/><path class="cls-2" d="M108.75,347.37l1.46-3.71-3.31-8.34h1.17s2.45,6.21,2.72,7.08h.04c.27-.86,2.65-7.08,2.65-7.08h1.08l-4.65,12.04h-1.15Z"/><path class="cls-2" d="M123.94,335.11c1.75,0,2.74.92,3.21,2.18l-.99.41c-.31-.99-.97-1.69-2.25-1.69-1.76,0-2.72,1.55-2.72,3.53s.97,3.55,2.72,3.55c1.35,0,1.89-.77,2.27-1.67l.99.4c-.61,1.31-1.58,2.18-3.26,2.18-2.48,0-3.83-1.96-3.83-4.45s1.31-4.43,3.87-4.43Z"/><path class="cls-2" d="M135.88,343.77h-.99v-1.4c-.4.86-1.46,1.62-2.88,1.62-1.62,0-2.83-.97-2.83-2.88v-5.78h1.08v5.56c0,1.46.85,2.18,1.96,2.18,1.39,0,2.57-1.1,2.57-2.74v-5h1.08v8.44Z"/><path class="cls-2" d="M143.31,336.33c-.2-.16-.47-.31-1.01-.31-1.13,0-2.25,1.15-2.25,2.93v4.81h-1.08v-8.44h.99v1.42c.36-.88,1.33-1.64,2.56-1.64.41,0,.85.07,1.1.22l-.31,1.01Z"/><path class="cls-2" d="M144.41,335.32h1.15s2.34,6.19,2.72,7.4h.04c.38-1.21,2.7-7.4,2.7-7.4h1.08l-3.29,8.44h-1.1l-3.29-8.44Z"/><path class="cls-2" d="M160.45,341.79c-.61,1.31-1.67,2.2-3.35,2.2-2.5,0-3.89-1.94-3.89-4.46s1.37-4.41,3.83-4.41,3.64,2.02,3.64,4.09v.45h-6.39c.09,1.89.92,3.47,2.81,3.47,1.33,0,1.93-.67,2.43-1.73l.92.4ZM154.36,338.78h5.2c-.09-1.73-1.1-2.81-2.57-2.81s-2.47,1.19-2.63,2.81Z"/><path class="cls-2" d="M165.47,343.99c-1.89,0-3.21-.88-3.37-2.66l1.04-.13c.07,1.1.77,1.95,2.34,1.95,1.42,0,2.2-.67,2.2-1.62s-.63-1.37-2.27-1.58c-1.91-.25-3.06-.85-3.06-2.39s1.46-2.43,3.01-2.43c1.78,0,3.02.88,3.22,2.32l-1.06.23c-.16-1.1-.83-1.71-2.2-1.71-1.04,0-1.89.56-1.89,1.51.02.95.61,1.31,2.29,1.55,1.85.25,3.04.83,3.04,2.41,0,1.49-1.21,2.56-3.29,2.56Z"/><path class="cls-2" d="M180.35,342.53c-.45.72-1.55,1.46-3.02,1.46-1.64,0-2.67-.88-2.67-2.34,0-2.16,2.61-2.86,5.69-2.86v-.65c0-1.22-.65-2.14-2.12-2.14-1.39,0-2.05.77-2.14,1.84l-1.1-.16c.22-1.69,1.64-2.56,3.28-2.56,2,0,3.15,1.19,3.15,2.92v4.47c0,.56.09.97.2,1.28h-1.06c-.11-.22-.22-.7-.2-1.24ZM180.35,340.42v-.79c-2.7,0-4.59.58-4.59,1.96,0,.94.7,1.53,1.76,1.53,1.51,0,2.83-.99,2.83-2.7Z"/><path class="cls-2" d="M184.35,335.32h.99v1.4c.41-.85,1.48-1.62,2.92-1.62,1.64,0,2.86.97,2.86,2.88v5.78h-1.08v-5.56c0-1.46-.86-2.18-2-2.18-1.4,0-2.61,1.13-2.61,2.77v4.97h-1.08v-8.44Z"/><path class="cls-2" d="M197.2,335.11c1.42,0,2.38.72,2.84,1.49v-5.44h1.08v12.6h-.99v-1.4c-.41.81-1.48,1.62-2.9,1.62-2.18,0-3.8-1.76-3.8-4.45s1.62-4.43,3.76-4.43ZM197.31,343.08c1.33,0,2.74-1.08,2.74-2.93v-1.21c0-1.85-1.42-2.94-2.74-2.94-1.71,0-2.75,1.53-2.75,3.53s1.04,3.55,2.75,3.55Z"/><path class="cls-2" d="M212.43,343.99c-1.42,0-2.48-.81-2.9-1.62v1.4h-.99v-12.6h1.08v5.44c.47-.77,1.42-1.49,2.84-1.49,2.14,0,3.76,1.76,3.76,4.43s-1.62,4.45-3.8,4.45ZM212.36,336.01c-1.31,0-2.74,1.08-2.74,2.94v1.21c0,1.85,1.4,2.93,2.74,2.93,1.71,0,2.75-1.53,2.75-3.55s-1.04-3.53-2.75-3.53Z"/><path class="cls-2" d="M225.33,341.79c-.61,1.31-1.67,2.2-3.35,2.2-2.5,0-3.89-1.94-3.89-4.46s1.37-4.41,3.83-4.41,3.64,2.02,3.64,4.09v.45h-6.39c.09,1.89.92,3.47,2.81,3.47,1.33,0,1.93-.67,2.43-1.73l.92.4ZM219.25,338.78h5.2c-.09-1.73-1.1-2.81-2.57-2.81s-2.47,1.19-2.63,2.81Z"/><path class="cls-2" d="M227.17,335.32h6.14v.67l-4.97,6.88h4.97v.9h-6.27v-.72l4.92-6.81h-4.79v-.92Z"/><path class="cls-2" d="M236.17,331.67c.45,0,.76.32.76.76s-.31.74-.76.74-.76-.32-.76-.74.31-.76.76-.76ZM235.63,335.32h1.08v8.44h-1.08v-8.44Z"/><path class="cls-2" d="M246.36,341.79c-.61,1.31-1.67,2.2-3.35,2.2-2.5,0-3.89-1.94-3.89-4.46s1.37-4.41,3.83-4.41,3.64,2.02,3.64,4.09v.45h-6.39c.09,1.89.92,3.47,2.81,3.47,1.33,0,1.93-.67,2.43-1.73l.92.4ZM240.27,338.78h5.2c-.09-1.73-1.1-2.81-2.57-2.81s-2.47,1.19-2.63,2.81Z"/><path class="cls-2" d="M253.18,336.33c-.2-.16-.47-.31-1.01-.31-1.13,0-2.25,1.15-2.25,2.93v4.81h-1.08v-8.44h.99v1.42c.36-.88,1.33-1.64,2.56-1.64.41,0,.85.07,1.1.22l-.31,1.01Z"/><path class="cls-2" d="M263.37,343.99c-1.42,0-2.38-.72-2.84-1.49v4.88h-1.08v-12.04h.99v1.4c.41-.81,1.48-1.62,2.9-1.62,2.18,0,3.8,1.76,3.8,4.45s-1.62,4.43-3.76,4.43ZM263.26,336.01c-1.33,0-2.74,1.08-2.74,2.94v1.21c0,1.85,1.42,2.93,2.74,2.93,1.71,0,2.75-1.53,2.75-3.53s-1.04-3.55-2.75-3.55Z"/><path class="cls-2" d="M276.81,339.56c0,2.48-1.35,4.43-3.91,4.43s-3.91-1.94-3.91-4.43,1.35-4.45,3.91-4.45,3.91,1.96,3.91,4.45ZM270.12,339.56c0,1.93.92,3.55,2.79,3.55s2.79-1.62,2.79-3.55-.92-3.57-2.79-3.57-2.79,1.62-2.79,3.57Z"/><path class="cls-2" d="M279.76,331.67c.45,0,.76.32.76.76s-.31.74-.76.74-.76-.32-.76-.74.31-.76.76-.76ZM279.22,335.32h1.08v8.44h-1.08v-8.44Z"/><path class="cls-2" d="M283.4,335.32h.99v1.4c.41-.85,1.48-1.62,2.92-1.62,1.64,0,2.86.97,2.86,2.88v5.78h-1.08v-5.56c0-1.46-.86-2.18-2-2.18-1.4,0-2.61,1.13-2.61,2.77v4.97h-1.08v-8.44Z"/><path class="cls-2" d="M296.56,343.61c-.27.22-.83.38-1.42.38-1.22,0-1.84-.72-1.84-1.93v-5.89h-1.46v-.85h1.46v-2.45l1.08-.5v2.95h2v.85h-2v5.74c0,.72.27,1.15.9,1.15.29,0,.63-.11.86-.32l.41.86Z"/><path class="cls-2" d="M301.13,343.99c-1.89,0-3.21-.88-3.37-2.66l1.04-.13c.07,1.1.77,1.95,2.34,1.95,1.42,0,2.2-.67,2.2-1.62s-.63-1.37-2.27-1.58c-1.91-.25-3.06-.85-3.06-2.39s1.46-2.43,3.01-2.43c1.78,0,3.02.88,3.22,2.32l-1.06.23c-.16-1.1-.83-1.71-2.2-1.71-1.04,0-1.89.56-1.89,1.51.02.95.61,1.31,2.29,1.55,1.85.25,3.04.83,3.04,2.41,0,1.49-1.21,2.56-3.29,2.56Z"/><path class="cls-2" d="M316.41,335.32s2.03,6.19,2.3,7.27h.04c.34-1.42,2.2-7.27,2.2-7.27h1.03l-2.74,8.44h-1.08s-1.85-5.67-2.23-7.08c-.4,1.4-2.23,7.08-2.23,7.08h-1.08l-2.74-8.44h1.1s1.91,6.01,2.2,7.27h.04c.38-1.26,2.29-7.27,2.3-7.27h.9Z"/><path class="cls-2" d="M330.51,341.79c-.61,1.31-1.67,2.2-3.35,2.2-2.5,0-3.89-1.94-3.89-4.46s1.37-4.41,3.83-4.41,3.64,2.02,3.64,4.09v.45h-6.39c.09,1.89.92,3.47,2.81,3.47,1.33,0,1.93-.67,2.43-1.73l.92.4ZM324.42,338.78h5.2c-.09-1.73-1.1-2.81-2.57-2.81s-2.47,1.19-2.63,2.81Z"/><path class="cls-2" d="M337.33,336.33c-.2-.16-.47-.31-1.01-.31-1.13,0-2.25,1.15-2.25,2.93v4.81h-1.08v-8.44h.99v1.42c.36-.88,1.33-1.64,2.56-1.64.41,0,.85.07,1.1.22l-.31,1.01Z"/><path class="cls-2" d="M345.65,341.79c-.61,1.31-1.67,2.2-3.35,2.2-2.5,0-3.89-1.94-3.89-4.46s1.37-4.41,3.83-4.41,3.64,2.02,3.64,4.09v.45h-6.39c.09,1.89.92,3.47,2.81,3.47,1.33,0,1.93-.67,2.43-1.73l.92.4ZM339.56,338.78h5.2c-.09-1.73-1.1-2.81-2.57-2.81s-2.47,1.19-2.63,2.81Z"/><path class="cls-2" d="M357.38,342.53c-.45.72-1.55,1.46-3.02,1.46-1.64,0-2.67-.88-2.67-2.34,0-2.16,2.61-2.86,5.69-2.86v-.65c0-1.22-.65-2.14-2.12-2.14-1.39,0-2.05.77-2.14,1.84l-1.1-.16c.22-1.69,1.64-2.56,3.28-2.56,2,0,3.15,1.19,3.15,2.92v4.47c0,.56.09.97.2,1.28h-1.06c-.11-.22-.22-.7-.2-1.24ZM357.38,340.42v-.79c-2.7,0-4.59.58-4.59,1.96,0,.94.7,1.53,1.76,1.53,1.51,0,2.83-.99,2.83-2.7Z"/><path class="cls-2" d="M365.3,343.99c-1.42,0-2.38-.72-2.84-1.49v4.88h-1.08v-12.04h.99v1.4c.41-.81,1.48-1.62,2.9-1.62,2.18,0,3.8,1.76,3.8,4.45s-1.62,4.43-3.76,4.43ZM365.19,336.01c-1.33,0-2.74,1.08-2.74,2.94v1.21c0,1.85,1.42,2.93,2.74,2.93,1.71,0,2.75-1.53,2.75-3.53s-1.04-3.55-2.75-3.55Z"/><path class="cls-2" d="M375.4,343.99c-1.42,0-2.38-.72-2.84-1.49v4.88h-1.08v-12.04h.99v1.4c.41-.81,1.48-1.62,2.9-1.62,2.18,0,3.8,1.76,3.8,4.45s-1.62,4.43-3.76,4.43ZM375.29,336.01c-1.33,0-2.74,1.08-2.74,2.94v1.21c0,1.85,1.42,2.93,2.74,2.93,1.71,0,2.75-1.53,2.75-3.53s-1.04-3.55-2.75-3.55Z"/><path class="cls-2" d="M381.57,331.17h1.08v12.6h-1.08v-12.6Z"/><path class="cls-2" d="M386.29,331.67c.45,0,.76.32.76.76s-.31.74-.76.74-.76-.32-.76-.74.31-.76.76-.76ZM385.75,335.32h1.08v8.44h-1.08v-8.44Z"/><path class="cls-2" d="M396.48,341.79c-.61,1.31-1.67,2.2-3.35,2.2-2.5,0-3.89-1.94-3.89-4.46s1.37-4.41,3.83-4.41,3.64,2.02,3.64,4.09v.45h-6.39c.09,1.89.92,3.47,2.81,3.47,1.33,0,1.93-.67,2.43-1.73l.92.4ZM390.39,338.78h5.2c-.09-1.73-1.1-2.81-2.57-2.81s-2.47,1.19-2.63,2.81Z"/><path class="cls-2" d="M402.13,335.11c1.42,0,2.38.72,2.84,1.49v-5.44h1.08v12.6h-.99v-1.4c-.41.81-1.48,1.62-2.9,1.62-2.18,0-3.8-1.76-3.8-4.45s1.62-4.43,3.76-4.43ZM402.24,343.08c1.33,0,2.74-1.08,2.74-2.93v-1.21c0-1.85-1.42-2.94-2.74-2.94-1.71,0-2.75,1.53-2.75,3.53s1.04,3.55,2.75,3.55Z"/><path class="cls-2" d="M418.8,335.32s2.03,6.19,2.3,7.27h.04c.34-1.42,2.2-7.27,2.2-7.27h1.03l-2.74,8.44h-1.08s-1.85-5.67-2.23-7.08c-.4,1.4-2.23,7.08-2.23,7.08h-1.08l-2.74-8.44h1.1s1.91,6.01,2.2,7.27h.04c.38-1.26,2.29-7.27,2.3-7.27h.9Z"/><path class="cls-2" d="M426.79,331.67c.45,0,.76.32.76.76s-.31.74-.76.74-.76-.32-.76-.74.31-.76.76-.76ZM426.25,335.32h1.08v8.44h-1.08v-8.44Z"/><path class="cls-2" d="M433.99,343.61c-.27.22-.83.38-1.42.38-1.22,0-1.84-.72-1.84-1.93v-5.89h-1.46v-.85h1.46v-2.45l1.08-.5v2.95h2v.85h-2v5.74c0,.72.27,1.15.9,1.15.29,0,.63-.11.86-.32l.41.86Z"/><path class="cls-2" d="M436.02,331.17h1.08v5.4c.45-.79,1.48-1.46,2.83-1.46,1.64,0,2.86.97,2.86,2.88v5.78h-1.08v-5.56c0-1.46-.86-2.18-2-2.18-1.4,0-2.61,1.13-2.61,2.77v4.97h-1.08v-12.6Z"/><path class="cls-2" d="M455.05,342.53c-.45.72-1.55,1.46-3.02,1.46-1.64,0-2.67-.88-2.67-2.34,0-2.16,2.61-2.86,5.69-2.86v-.65c0-1.22-.65-2.14-2.12-2.14-1.39,0-2.05.77-2.14,1.84l-1.1-.16c.22-1.69,1.64-2.56,3.28-2.56,2,0,3.15,1.19,3.15,2.92v4.47c0,.56.09.97.2,1.28h-1.06c-.11-.22-.22-.7-.2-1.24ZM455.05,340.42v-.79c-2.7,0-4.59.58-4.59,1.96,0,.94.7,1.53,1.76,1.53,1.51,0,2.83-.99,2.83-2.7Z"/><path class="cls-2" d="M465.9,343.99c-1.89,0-3.21-.88-3.37-2.66l1.04-.13c.07,1.1.77,1.95,2.34,1.95,1.42,0,2.2-.67,2.2-1.62s-.63-1.37-2.27-1.58c-1.91-.25-3.06-.85-3.06-2.39s1.46-2.43,3.01-2.43c1.78,0,3.02.88,3.22,2.32l-1.06.23c-.16-1.1-.83-1.71-2.2-1.71-1.04,0-1.89.56-1.89,1.51.02.95.61,1.31,2.29,1.55,1.85.25,3.04.83,3.04,2.41,0,1.49-1.21,2.56-3.29,2.56Z"/><path class="cls-2" d="M478.18,341.79c-.61,1.31-1.67,2.2-3.35,2.2-2.5,0-3.89-1.94-3.89-4.46s1.37-4.41,3.83-4.41,3.64,2.02,3.64,4.09v.45h-6.39c.09,1.89.92,3.47,2.81,3.47,1.33,0,1.93-.67,2.43-1.73l.92.4ZM472.09,338.78h5.2c-.09-1.73-1.1-2.81-2.57-2.81s-2.47,1.19-2.63,2.81Z"/><path class="cls-2" d="M480.66,335.32h.99v1.4c.41-.85,1.48-1.62,2.92-1.62,1.64,0,2.86.97,2.86,2.88v5.78h-1.08v-5.56c0-1.46-.86-2.18-2-2.18-1.4,0-2.61,1.13-2.61,2.77v4.97h-1.08v-8.44Z"/><path class="cls-2" d="M492.97,343.99c-1.89,0-3.21-.88-3.37-2.66l1.04-.13c.07,1.1.77,1.95,2.34,1.95,1.42,0,2.2-.67,2.2-1.62s-.63-1.37-2.27-1.58c-1.91-.25-3.06-.85-3.06-2.39s1.46-2.43,3.01-2.43c1.78,0,3.02.88,3.22,2.32l-1.06.23c-.16-1.1-.83-1.71-2.2-1.71-1.04,0-1.89.56-1.89,1.51.02.95.61,1.31,2.29,1.55,1.85.25,3.04.83,3.04,2.41,0,1.49-1.21,2.56-3.29,2.56Z"/><path class="cls-2" d="M505.25,341.79c-.61,1.31-1.67,2.2-3.35,2.2-2.5,0-3.89-1.94-3.89-4.46s1.37-4.41,3.83-4.41,3.64,2.02,3.64,4.09v.45h-6.39c.09,1.89.92,3.47,2.81,3.47,1.33,0,1.93-.67,2.43-1.73l.92.4ZM499.16,338.78h5.2c-.09-1.73-1.1-2.81-2.57-2.81s-2.47,1.19-2.63,2.81Z"/><path class="cls-2" d="M519.18,339.56c0,2.48-1.35,4.43-3.91,4.43s-3.91-1.94-3.91-4.43,1.35-4.45,3.91-4.45,3.91,1.96,3.91,4.45ZM512.48,339.56c0,1.93.92,3.55,2.79,3.55s2.79-1.62,2.79-3.55-.92-3.57-2.79-3.57-2.79,1.62-2.79,3.57Z"/><path class="cls-2" d="M521.72,335.32v-1.78c0-1.8,1.12-2.59,2.48-2.59.68,0,1.39.2,1.85.52l-.49.85c-.23-.16-.68-.45-1.31-.45-.9,0-1.46.65-1.46,1.69v1.76h2.02v.85h-2.02v7.6h-1.08v-7.6h-1.46v-.85h1.46Z"/><path class="cls-2" d="M78.69,365.58c-1.42,0-2.38-.72-2.84-1.49v4.88h-1.08v-12.04h.99v1.4c.41-.81,1.48-1.62,2.9-1.62,2.18,0,3.8,1.76,3.8,4.45s-1.62,4.43-3.76,4.43ZM78.58,357.61c-1.33,0-2.74,1.08-2.74,2.94v1.21c0,1.85,1.42,2.93,2.74,2.93,1.71,0,2.75-1.53,2.75-3.53s-1.04-3.55-2.75-3.55Z"/><path class="cls-2" d="M91.47,365.37h-.99v-1.4c-.4.86-1.46,1.62-2.88,1.62-1.62,0-2.83-.97-2.83-2.88v-5.78h1.08v5.56c0,1.46.85,2.18,1.96,2.18,1.39,0,2.57-1.1,2.57-2.74v-5h1.08v8.44Z"/><path class="cls-2" d="M98.9,357.93c-.2-.16-.47-.31-1.01-.31-1.13,0-2.25,1.15-2.25,2.93v4.81h-1.08v-8.44h.99v1.42c.36-.88,1.33-1.64,2.56-1.64.41,0,.85.07,1.1.22l-.31,1.01Z"/><path class="cls-2" d="M104.77,365.58c-1.42,0-2.38-.72-2.84-1.49v4.88h-1.08v-12.04h.99v1.4c.41-.81,1.48-1.62,2.9-1.62,2.18,0,3.8,1.76,3.8,4.45s-1.62,4.43-3.76,4.43ZM104.66,357.61c-1.33,0-2.74,1.08-2.74,2.94v1.21c0,1.85,1.42,2.93,2.74,2.93,1.71,0,2.75-1.53,2.75-3.53s-1.04-3.55-2.75-3.55Z"/><path class="cls-2" d="M118.22,361.16c0,2.48-1.35,4.43-3.91,4.43s-3.91-1.94-3.91-4.43,1.35-4.45,3.91-4.45,3.91,1.96,3.91,4.45ZM111.52,361.16c0,1.93.92,3.55,2.79,3.55s2.79-1.62,2.79-3.55-.92-3.57-2.79-3.57-2.79,1.62-2.79,3.57Z"/><path class="cls-2" d="M123.17,365.58c-1.89,0-3.21-.88-3.37-2.66l1.04-.13c.07,1.1.77,1.95,2.34,1.95,1.42,0,2.2-.67,2.2-1.62s-.63-1.37-2.27-1.58c-1.91-.25-3.06-.85-3.06-2.39s1.46-2.43,3.01-2.43c1.78,0,3.02.88,3.22,2.32l-1.06.23c-.16-1.1-.83-1.71-2.2-1.71-1.04,0-1.89.56-1.89,1.51.02.95.61,1.31,2.29,1.55,1.85.25,3.04.83,3.04,2.41,0,1.49-1.21,2.56-3.29,2.56Z"/><path class="cls-2" d="M135.44,363.39c-.61,1.31-1.67,2.2-3.35,2.2-2.5,0-3.89-1.94-3.89-4.46s1.37-4.41,3.83-4.41,3.64,2.02,3.64,4.09v.45h-6.39c.09,1.89.92,3.47,2.81,3.47,1.33,0,1.93-.67,2.43-1.73l.92.4ZM129.36,360.38h5.2c-.09-1.73-1.1-2.81-2.57-2.81s-2.47,1.19-2.63,2.81Z"/><path class="cls-2" d="M139.04,364.67c0,.45-.36.81-.83.81s-.83-.36-.83-.81.36-.81.83-.81.83.36.83.81Z"/><path class="cls-2" d="M146.48,352.77h1.12v12.6h-1.12v-12.6Z"/><path class="cls-2" d="M154.45,365.21c-.27.22-.83.38-1.42.38-1.22,0-1.84-.72-1.84-1.93v-5.89h-1.46v-.85h1.46v-2.45l1.08-.5v2.95h2v.85h-2v5.74c0,.72.27,1.15.9,1.15.29,0,.63-.11.86-.32l.41.86Z"/><path class="cls-2" d="M161.34,353.27c.45,0,.76.32.76.76s-.31.74-.76.74-.76-.32-.76-.74.31-.76.76-.76ZM160.8,356.92h1.08v8.44h-1.08v-8.44Z"/><path class="cls-2" d="M167.52,365.58c-1.89,0-3.21-.88-3.37-2.66l1.04-.13c.07,1.1.77,1.95,2.34,1.95,1.42,0,2.2-.67,2.2-1.62s-.63-1.37-2.27-1.58c-1.91-.25-3.06-.85-3.06-2.39s1.46-2.43,3.01-2.43c1.78,0,3.02.88,3.22,2.32l-1.06.23c-.16-1.1-.83-1.71-2.2-1.71-1.04,0-1.89.56-1.89,1.51.02.95.61,1.31,2.29,1.55,1.85.25,3.04.83,3.04,2.41,0,1.49-1.21,2.56-3.29,2.56Z"/><path class="cls-2" d="M178.01,353.27c.45,0,.76.32.76.76s-.31.74-.76.74-.76-.32-.76-.74.31-.76.76-.76ZM177.47,356.92h1.08v8.44h-1.08v-8.44Z"/><path class="cls-2" d="M181.65,356.92h.99v1.4c.41-.85,1.48-1.62,2.92-1.62,1.64,0,2.86.97,2.86,2.88v5.78h-1.08v-5.56c0-1.46-.86-2.18-2-2.18-1.4,0-2.61,1.13-2.61,2.77v4.97h-1.08v-8.44Z"/><path class="cls-2" d="M193.96,365.58c-1.89,0-3.21-.88-3.37-2.66l1.04-.13c.07,1.1.77,1.95,2.34,1.95,1.42,0,2.2-.67,2.2-1.62s-.63-1.37-2.27-1.58c-1.91-.25-3.06-.85-3.06-2.39s1.46-2.43,3.01-2.43c1.78,0,3.02.88,3.22,2.32l-1.06.23c-.16-1.1-.83-1.71-2.2-1.71-1.04,0-1.89.56-1.89,1.51.02.95.61,1.31,2.29,1.55,1.85.25,3.04.83,3.04,2.41,0,1.49-1.21,2.56-3.29,2.56Z"/><path class="cls-2" d="M203.52,365.58c-1.42,0-2.38-.72-2.84-1.49v4.88h-1.08v-12.04h.99v1.4c.41-.81,1.48-1.62,2.9-1.62,2.18,0,3.8,1.76,3.8,4.45s-1.62,4.43-3.76,4.43ZM203.41,357.61c-1.33,0-2.74,1.08-2.74,2.94v1.21c0,1.85,1.42,2.93,2.74,2.93,1.71,0,2.75-1.53,2.75-3.53s-1.04-3.55-2.75-3.55Z"/><path class="cls-2" d="M210.23,353.27c.45,0,.76.32.76.76s-.31.74-.76.74-.76-.32-.76-.74.31-.76.76-.76ZM209.69,356.92h1.08v8.44h-1.08v-8.44Z"/><path class="cls-2" d="M218.2,357.93c-.2-.16-.47-.31-1.01-.31-1.13,0-2.25,1.15-2.25,2.93v4.81h-1.08v-8.44h.99v1.42c.36-.88,1.33-1.64,2.56-1.64.41,0,.85.07,1.1.22l-.31,1.01Z"/><path class="cls-2" d="M226.52,363.39c-.61,1.31-1.67,2.2-3.35,2.2-2.5,0-3.89-1.94-3.89-4.46s1.37-4.41,3.83-4.41,3.64,2.02,3.64,4.09v.45h-6.39c.09,1.89.92,3.47,2.81,3.47,1.33,0,1.93-.67,2.43-1.73l.92.4ZM220.43,360.38h5.2c-.09-1.73-1.1-2.81-2.57-2.81s-2.47,1.19-2.63,2.81Z"/><path class="cls-2" d="M232.17,356.71c1.42,0,2.38.72,2.84,1.49v-5.44h1.08v12.6h-.99v-1.4c-.41.81-1.48,1.62-2.9,1.62-2.18,0-3.8-1.76-3.8-4.45s1.62-4.43,3.76-4.43ZM232.28,364.68c1.33,0,2.74-1.08,2.74-2.93v-1.21c0-1.85-1.42-2.94-2.74-2.94-1.71,0-2.75,1.53-2.75,3.53s1.04,3.55,2.75,3.55Z"/><path class="cls-2" d="M247.4,365.58c-1.42,0-2.48-.81-2.9-1.62v1.4h-.99v-12.6h1.08v5.44c.47-.77,1.42-1.49,2.84-1.49,2.14,0,3.76,1.76,3.76,4.43s-1.62,4.45-3.8,4.45ZM247.33,357.61c-1.31,0-2.74,1.08-2.74,2.94v1.21c0,1.85,1.4,2.93,2.74,2.93,1.71,0,2.75-1.53,2.75-3.55s-1.04-3.53-2.75-3.53Z"/><path class="cls-2" d="M254.17,368.97l1.46-3.71-3.31-8.34h1.17s2.45,6.21,2.72,7.08h.04c.27-.86,2.65-7.08,2.65-7.08h1.08l-4.65,12.04h-1.15Z"/><path class="cls-2" d="M269.74,365.21c-.27.22-.83.38-1.42.38-1.22,0-1.84-.72-1.84-1.93v-5.89h-1.46v-.85h1.46v-2.45l1.08-.5v2.95h2v.85h-2v5.74c0,.72.27,1.15.9,1.15.29,0,.63-.11.86-.32l.41.86Z"/><path class="cls-2" d="M271.77,352.77h1.08v5.4c.45-.79,1.48-1.46,2.83-1.46,1.64,0,2.86.97,2.86,2.88v5.78h-1.08v-5.56c0-1.46-.86-2.18-2-2.18-1.4,0-2.61,1.13-2.61,2.77v4.97h-1.08v-12.6Z"/><path class="cls-2" d="M288.1,363.39c-.61,1.31-1.67,2.2-3.35,2.2-2.5,0-3.89-1.94-3.89-4.46s1.37-4.41,3.83-4.41,3.64,2.02,3.64,4.09v.45h-6.39c.09,1.89.92,3.47,2.81,3.47,1.33,0,1.93-.67,2.43-1.73l.92.4ZM282.01,360.38h5.2c-.09-1.73-1.1-2.81-2.57-2.81s-2.47,1.19-2.63,2.81Z"/><path class="cls-2" d="M300.23,356.92s2.03,6.19,2.3,7.27h.04c.34-1.42,2.2-7.27,2.2-7.27h1.03l-2.74,8.44h-1.08s-1.85-5.67-2.23-7.08c-.4,1.4-2.23,7.08-2.23,7.08h-1.08l-2.74-8.44h1.1s1.91,6.01,2.2,7.27h.04c.38-1.26,2.29-7.27,2.3-7.27h.9Z"/><path class="cls-2" d="M314.9,361.16c0,2.48-1.35,4.43-3.91,4.43s-3.91-1.94-3.91-4.43,1.35-4.45,3.91-4.45,3.91,1.96,3.91,4.45ZM308.2,361.16c0,1.93.92,3.55,2.79,3.55s2.79-1.62,2.79-3.55-.92-3.57-2.79-3.57-2.79,1.62-2.79,3.57Z"/><path class="cls-2" d="M321.65,357.93c-.2-.16-.47-.31-1.01-.31-1.13,0-2.25,1.15-2.25,2.93v4.81h-1.08v-8.44h.99v1.42c.36-.88,1.33-1.64,2.56-1.64.41,0,.85.07,1.1.22l-.31,1.01Z"/><path class="cls-2" d="M325.81,360.65l-1.13,1.06v3.66h-1.08v-12.6h1.08v7.69l3.83-3.53h1.35l-3.26,3.06,3.87,5.38h-1.3l-3.37-4.72Z"/><path class="cls-2" d="M343.55,361.16c0,2.48-1.35,4.43-3.91,4.43s-3.91-1.94-3.91-4.43,1.35-4.45,3.91-4.45,3.91,1.96,3.91,4.45ZM336.86,361.16c0,1.93.92,3.55,2.79,3.55s2.79-1.62,2.79-3.55-.92-3.57-2.79-3.57-2.79,1.62-2.79,3.57Z"/><path class="cls-2" d="M346.09,356.92v-1.78c0-1.8,1.12-2.59,2.48-2.59.68,0,1.39.2,1.85.52l-.49.85c-.23-.16-.68-.45-1.31-.45-.9,0-1.46.65-1.46,1.69v1.76h2.02v.85h-2.02v7.6h-1.08v-7.6h-1.46v-.85h1.46Z"/><path class="cls-2" d="M355.74,365.37v-12.6h6.99v.92h-5.87v4.72h5.51v.92h-5.51v5.13h6.01v.92h-7.13Z"/><path class="cls-2" d="M365.91,353.27c.45,0,.76.32.76.76s-.31.74-.76.74-.76-.32-.76-.74.31-.76.76-.76ZM365.37,356.92h1.08v8.44h-1.08v-8.44Z"/><path class="cls-2" d="M371.76,360.65l-1.13,1.06v3.66h-1.08v-12.6h1.08v7.69l3.83-3.53h1.35l-3.26,3.06,3.87,5.38h-1.3l-3.37-4.72Z"/><path class="cls-2" d="M384.88,361.16c0,2.48-1.35,4.43-3.91,4.43s-3.91-1.94-3.91-4.43,1.35-4.45,3.91-4.45,3.91,1.96,3.91,4.45ZM378.18,361.16c0,1.93.92,3.55,2.79,3.55s2.79-1.62,2.79-3.55-.92-3.57-2.79-3.57-2.79,1.62-2.79,3.57Z"/><path class="cls-2" d="M391.81,352.77h1.12v12.6h-1.12v-12.6Z"/><path class="cls-2" d="M398.76,365.58c-1.89,0-3.21-.88-3.37-2.66l1.04-.13c.07,1.1.77,1.95,2.34,1.95,1.42,0,2.2-.67,2.2-1.62s-.63-1.37-2.27-1.58c-1.91-.25-3.06-.85-3.06-2.39s1.46-2.43,3.01-2.43c1.78,0,3.02.88,3.22,2.32l-1.06.23c-.16-1.1-.83-1.71-2.2-1.71-1.04,0-1.89.56-1.89,1.51.02.95.61,1.31,2.29,1.55,1.85.25,3.04.83,3.04,2.41,0,1.49-1.21,2.56-3.29,2.56Z"/><path class="cls-2" d="M404.39,352.77h1.08v5.4c.45-.79,1.48-1.46,2.83-1.46,1.64,0,2.86.97,2.86,2.88v5.78h-1.08v-5.56c0-1.46-.86-2.18-2-2.18-1.4,0-2.61,1.13-2.61,2.77v4.97h-1.08v-12.6Z"/><path class="cls-2" d="M414.7,353.27c.45,0,.76.32.76.76s-.31.74-.76.74-.76-.32-.76-.74.31-.76.76-.76ZM414.16,356.92h1.08v8.44h-1.08v-8.44Z"/><path class="cls-2" d="M425.47,361.16c0,2.48-1.35,4.43-3.91,4.43s-3.91-1.94-3.91-4.43,1.35-4.45,3.91-4.45,3.91,1.96,3.91,4.45ZM418.77,361.16c0,1.93.92,3.55,2.79,3.55s2.79-1.62,2.79-3.55-.92-3.57-2.79-3.57-2.79,1.62-2.79,3.57Z"/><path class="cls-2" d="M430.1,360.65l-1.13,1.06v3.66h-1.08v-12.6h1.08v7.69l3.83-3.53h1.35l-3.26,3.06,3.87,5.38h-1.3l-3.37-4.72Z"/><path class="cls-2" d="M441.33,364.13c-.45.72-1.55,1.46-3.02,1.46-1.64,0-2.67-.88-2.67-2.34,0-2.16,2.61-2.86,5.69-2.86v-.65c0-1.22-.65-2.14-2.12-2.14-1.39,0-2.05.77-2.14,1.84l-1.1-.16c.22-1.69,1.64-2.56,3.28-2.56,2,0,3.15,1.19,3.15,2.92v4.47c0,.56.09.97.2,1.28h-1.06c-.11-.22-.22-.7-.2-1.24ZM441.33,362.02v-.79c-2.7,0-4.59.58-4.59,1.96,0,.94.7,1.53,1.76,1.53,1.51,0,2.83-.99,2.83-2.7Z"/><path class="cls-2" d="M445.48,367.12l-.22-.58c.47-.09.77-.54.77-1.01v-.11s-.05.02-.16.02c-.38,0-.74-.29-.74-.79,0-.36.27-.79.81-.79.63,0,.92.54.92,1.19,0,.72-.31,1.76-1.39,2.07Z"/><path class="cls-2" d="M459.04,364.13c-.45.72-1.55,1.46-3.02,1.46-1.64,0-2.66-.88-2.66-2.34,0-2.16,2.61-2.86,5.69-2.86v-.65c0-1.22-.65-2.14-2.12-2.14-1.39,0-2.05.77-2.14,1.84l-1.1-.16c.22-1.69,1.64-2.56,3.28-2.56,2,0,3.15,1.19,3.15,2.92v4.47c0,.56.09.97.2,1.28h-1.06c-.11-.22-.22-.7-.2-1.24ZM459.04,362.02v-.79c-2.7,0-4.59.58-4.59,1.96,0,.94.7,1.53,1.76,1.53,1.51,0,2.83-.99,2.83-2.7Z"/><path class="cls-2" d="M472.68,359.81c0-1.46-.81-2.18-1.85-2.18-1.3,0-2.39,1.19-2.39,2.88v4.86h-1.08v-8.44h.99v1.4c.38-.86,1.37-1.62,2.7-1.62,1.15,0,2.09.54,2.5,1.6.56-.9,1.42-1.6,2.83-1.6,1.55,0,2.72.97,2.72,2.88v5.78h-1.08v-5.56c0-1.46-.81-2.18-1.85-2.18-1.26,0-2.39,1.19-2.39,2.79v4.95h-1.08v-5.56Z"/><path class="cls-2" d="M488.65,365.37h-.99v-1.4c-.4.86-1.46,1.62-2.88,1.62-1.62,0-2.83-.97-2.83-2.88v-5.78h1.08v5.56c0,1.46.85,2.18,1.96,2.18,1.39,0,2.57-1.1,2.57-2.74v-5h1.08v8.44Z"/><path class="cls-2" d="M491.74,352.77h1.08v12.6h-1.08v-12.6Z"/><path class="cls-2" d="M499.48,365.21c-.27.22-.83.38-1.42.38-1.22,0-1.84-.72-1.84-1.93v-5.89h-1.46v-.85h1.46v-2.45l1.08-.5v2.95h2v.85h-2v5.74c0,.72.27,1.15.9,1.15.29,0,.63-.11.86-.32l.41.86Z"/><path class="cls-2" d="M502.06,353.27c.45,0,.76.32.76.76s-.31.74-.76.74-.76-.32-.76-.74.31-.76.76-.76ZM501.52,356.92h1.08v8.44h-1.08v-8.44Z"/><path class="cls-2" d="M509.26,365.21c-.27.22-.83.38-1.42.38-1.22,0-1.84-.72-1.84-1.93v-5.89h-1.46v-.85h1.46v-2.45l1.08-.5v2.95h2v.85h-2v5.74c0,.72.27,1.15.9,1.15.29,0,.63-.11.86-.32l.41.86Z"/><path class="cls-2" d="M516.22,364.13c-.45.72-1.55,1.46-3.02,1.46-1.64,0-2.67-.88-2.67-2.34,0-2.16,2.61-2.86,5.69-2.86v-.65c0-1.22-.65-2.14-2.12-2.14-1.39,0-2.05.77-2.14,1.84l-1.1-.16c.22-1.69,1.64-2.56,3.28-2.56,2,0,3.15,1.19,3.15,2.92v4.47c0,.56.09.97.2,1.28h-1.06c-.11-.22-.22-.7-.2-1.24ZM516.22,362.02v-.79c-2.7,0-4.59.58-4.59,1.96,0,.94.7,1.53,1.76,1.53,1.51,0,2.83-.99,2.83-2.7Z"/><path class="cls-2" d="M520.22,352.77h1.08v12.6h-1.08v-12.6Z"/><path class="cls-2" d="M530.95,363.39c-.61,1.31-1.67,2.2-3.35,2.2-2.5,0-3.89-1.94-3.89-4.46s1.37-4.41,3.83-4.41,3.64,2.02,3.64,4.09v.45h-6.39c.09,1.89.92,3.47,2.81,3.47,1.33,0,1.93-.67,2.43-1.73l.92.4ZM524.86,360.38h5.2c-.09-1.73-1.1-2.81-2.57-2.81s-2.47,1.19-2.63,2.81Z"/><path class="cls-2" d="M533.43,356.92h.99v1.4c.41-.85,1.48-1.62,2.92-1.62,1.64,0,2.86.97,2.86,2.88v5.78h-1.08v-5.56c0-1.46-.86-2.18-2-2.18-1.4,0-2.61,1.13-2.61,2.77v4.97h-1.08v-8.44Z"/><path class="cls-2" d="M546.59,365.21c-.27.22-.83.38-1.42.38-1.22,0-1.84-.72-1.84-1.93v-5.89h-1.46v-.85h1.46v-2.45l1.08-.5v2.95h2v.85h-2v5.74c0,.72.27,1.15.9,1.15.29,0,.63-.11.86-.32l.41.86Z"/><path class="cls-2" d="M554.99,363.39c-.61,1.31-1.67,2.2-3.35,2.2-2.5,0-3.89-1.94-3.89-4.46s1.37-4.41,3.83-4.41,3.64,2.02,3.64,4.09v.45h-6.39c.09,1.89.92,3.47,2.81,3.47,1.33,0,1.93-.67,2.43-1.73l.92.4ZM548.91,360.38h5.2c-.09-1.73-1.1-2.81-2.57-2.81s-2.47,1.19-2.63,2.81Z"/><path class="cls-2" d="M560.65,356.71c1.42,0,2.38.72,2.84,1.49v-5.44h1.08v12.6h-.99v-1.4c-.41.81-1.48,1.62-2.9,1.62-2.18,0-3.8-1.76-3.8-4.45s1.62-4.43,3.76-4.43ZM560.75,364.68c1.33,0,2.74-1.08,2.74-2.93v-1.21c0-1.85-1.42-2.94-2.74-2.94-1.71,0-2.75,1.53-2.75,3.53s1.04,3.55,2.75,3.55Z"/><path class="cls-2" d="M75.94,386.27c1.44,0,1.96-1.08,1.96-3.33v-8.57h1.12v8.52c0,2.43-.49,4.3-3.04,4.3-1.24,0-2.05-.54-2.68-1.37l.74-.72c.5.68,1.1,1.17,1.91,1.17Z"/><path class="cls-2" d="M87.13,385.73c-.45.72-1.55,1.46-3.02,1.46-1.64,0-2.66-.88-2.66-2.34,0-2.16,2.61-2.86,5.69-2.86v-.65c0-1.22-.65-2.14-2.12-2.14-1.39,0-2.05.77-2.14,1.84l-1.1-.16c.22-1.69,1.64-2.56,3.28-2.56,2,0,3.15,1.19,3.15,2.92v4.47c0,.56.09.97.2,1.28h-1.06c-.11-.22-.22-.7-.2-1.24ZM87.13,383.62v-.79c-2.7,0-4.59.58-4.59,1.96,0,.94.7,1.53,1.76,1.53,1.51,0,2.83-.99,2.83-2.7Z"/><path class="cls-2" d="M95.05,387.19c-1.42,0-2.38-.72-2.84-1.49v4.88h-1.08v-12.05h.99v1.4c.41-.81,1.48-1.62,2.9-1.62,2.18,0,3.8,1.76,3.8,4.45s-1.62,4.43-3.76,4.43ZM94.94,379.21c-1.33,0-2.74,1.08-2.74,2.94v1.21c0,1.85,1.42,2.93,2.74,2.93,1.71,0,2.75-1.53,2.75-3.53s-1.04-3.55-2.75-3.55Z"/><path class="cls-2" d="M106.23,385.73c-.45.72-1.55,1.46-3.02,1.46-1.64,0-2.67-.88-2.67-2.34,0-2.16,2.61-2.86,5.69-2.86v-.65c0-1.22-.65-2.14-2.12-2.14-1.39,0-2.05.77-2.14,1.84l-1.1-.16c.22-1.69,1.64-2.56,3.28-2.56,2,0,3.15,1.19,3.15,2.92v4.47c0,.56.09.97.2,1.28h-1.06c-.11-.22-.22-.7-.2-1.24ZM106.23,383.62v-.79c-2.7,0-4.59.58-4.59,1.96,0,.94.7,1.53,1.76,1.53,1.51,0,2.83-.99,2.83-2.7Z"/><path class="cls-2" d="M110.22,378.53h.99v1.4c.41-.85,1.48-1.62,2.92-1.62,1.64,0,2.86.97,2.86,2.88v5.78h-1.08v-5.56c0-1.46-.86-2.18-2-2.18-1.4,0-2.61,1.13-2.61,2.77v4.97h-1.08v-8.44Z"/><path class="cls-2" d="M126.55,384.99c-.61,1.31-1.67,2.2-3.35,2.2-2.5,0-3.89-1.94-3.89-4.46s1.37-4.41,3.83-4.41,3.64,2.02,3.64,4.09v.45h-6.39c.09,1.89.92,3.47,2.81,3.47,1.33,0,1.93-.67,2.43-1.73l.92.4ZM120.47,381.98h5.2c-.09-1.73-1.1-2.81-2.57-2.81s-2.47,1.19-2.63,2.81Z"/><path class="cls-2" d="M131.57,387.19c-1.89,0-3.21-.88-3.37-2.67l1.04-.13c.07,1.1.77,1.95,2.34,1.95,1.42,0,2.2-.67,2.2-1.62s-.63-1.37-2.27-1.58c-1.91-.25-3.06-.85-3.06-2.39s1.46-2.43,3.01-2.43c1.78,0,3.02.88,3.22,2.32l-1.06.23c-.16-1.1-.83-1.71-2.2-1.71-1.04,0-1.89.56-1.89,1.51.02.95.61,1.31,2.29,1.55,1.85.25,3.04.83,3.04,2.41,0,1.49-1.21,2.56-3.29,2.56Z"/><path class="cls-2" d="M143.85,384.99c-.61,1.31-1.67,2.2-3.35,2.2-2.5,0-3.89-1.94-3.89-4.46s1.37-4.41,3.83-4.41,3.64,2.02,3.64,4.09v.45h-6.39c.09,1.89.92,3.47,2.81,3.47,1.33,0,1.93-.67,2.43-1.73l.92.4ZM137.76,381.98h5.2c-.09-1.73-1.1-2.81-2.57-2.81s-2.47,1.19-2.63,2.81Z"/><path class="cls-2" d="M155.59,385.73c-.45.72-1.55,1.46-3.02,1.46-1.64,0-2.67-.88-2.67-2.34,0-2.16,2.61-2.86,5.69-2.86v-.65c0-1.22-.65-2.14-2.12-2.14-1.39,0-2.05.77-2.14,1.84l-1.1-.16c.22-1.69,1.64-2.56,3.28-2.56,2,0,3.15,1.19,3.15,2.92v4.47c0,.56.09.97.2,1.28h-1.06c-.11-.22-.22-.7-.2-1.24ZM155.59,383.62v-.79c-2.7,0-4.59.58-4.59,1.96,0,.94.7,1.53,1.76,1.53,1.51,0,2.83-.99,2.83-2.7Z"/><path class="cls-2" d="M163.92,379.53c-.2-.16-.47-.31-1.01-.31-1.13,0-2.25,1.15-2.25,2.93v4.81h-1.08v-8.44h.99v1.42c.36-.88,1.33-1.64,2.56-1.64.41,0,.85.07,1.1.22l-.31,1.01Z"/><path class="cls-2" d="M169.84,386.81c-.27.22-.83.38-1.42.38-1.22,0-1.84-.72-1.84-1.93v-5.89h-1.46v-.85h1.46v-2.45l1.08-.5v2.95h2v.85h-2v5.74c0,.72.27,1.15.9,1.15.29,0,.63-.11.86-.32l.41.86Z"/><path class="cls-2" d="M172.41,374.87c.45,0,.76.32.76.76s-.31.74-.76.74-.76-.32-.76-.74.31-.76.76-.76ZM171.87,378.53h1.08v8.44h-1.08v-8.44Z"/><path class="cls-2" d="M178.59,387.19c-1.89,0-3.21-.88-3.37-2.67l1.04-.13c.07,1.1.77,1.95,2.34,1.95,1.42,0,2.2-.67,2.2-1.62s-.63-1.37-2.27-1.58c-1.91-.25-3.06-.85-3.06-2.39s1.46-2.43,3.01-2.43c1.78,0,3.02.88,3.22,2.32l-1.06.23c-.16-1.1-.83-1.71-2.2-1.71-1.04,0-1.89.56-1.89,1.51.02.95.61,1.31,2.29,1.55,1.85.25,3.04.83,3.04,2.41,0,1.49-1.21,2.56-3.29,2.56Z"/><path class="cls-2" d="M187.7,386.81c-.27.22-.83.38-1.42.38-1.22,0-1.84-.72-1.84-1.93v-5.89h-1.46v-.85h1.46v-2.45l1.08-.5v2.95h2v.85h-2v5.74c0,.72.27,1.15.9,1.15.29,0,.63-.11.86-.32l.41.86Z"/><path class="cls-2" d="M189.89,388.72l-.22-.58c.47-.09.77-.54.77-1.01v-.11s-.05.02-.16.02c-.38,0-.74-.29-.74-.79,0-.36.27-.79.81-.79.63,0,.92.54.92,1.19,0,.72-.31,1.76-1.39,2.07Z"/><path class="cls-2" d="M202.08,386.81c-.27.22-.83.38-1.42.38-1.22,0-1.84-.72-1.84-1.93v-5.89h-1.46v-.85h1.46v-2.45l1.08-.5v2.95h2v.85h-2v5.74c0,.72.27,1.15.9,1.15.29,0,.63-.11.86-.32l.41.86Z"/><path class="cls-2" d="M204.11,374.37h1.08v5.4c.45-.79,1.48-1.46,2.83-1.46,1.64,0,2.86.97,2.86,2.88v5.78h-1.08v-5.56c0-1.46-.86-2.18-2-2.18-1.4,0-2.61,1.13-2.61,2.77v4.97h-1.08v-12.6Z"/><path class="cls-2" d="M214.42,374.87c.45,0,.76.32.76.76s-.31.74-.76.74-.76-.32-.76-.74.31-.76.76-.76ZM213.88,378.53h1.08v8.44h-1.08v-8.44Z"/><path class="cls-2" d="M220.6,387.19c-1.89,0-3.21-.88-3.37-2.67l1.04-.13c.07,1.1.77,1.95,2.34,1.95,1.42,0,2.2-.67,2.2-1.62s-.63-1.37-2.27-1.58c-1.91-.25-3.06-.85-3.06-2.39s1.46-2.43,3.01-2.43c1.78,0,3.02.88,3.22,2.32l-1.06.23c-.16-1.1-.83-1.71-2.2-1.71-1.04,0-1.89.56-1.89,1.51.02.95.61,1.31,2.29,1.55,1.85.25,3.04.83,3.04,2.41,0,1.49-1.21,2.56-3.29,2.56Z"/><path class="cls-2" d="M234.12,386.81c-.27.22-.83.38-1.42.38-1.22,0-1.84-.72-1.84-1.93v-5.89h-1.46v-.85h1.46v-2.45l1.08-.5v2.95h2v.85h-2v5.74c0,.72.27,1.15.9,1.15.29,0,.63-.11.86-.32l.41.86Z"/><path class="cls-2" d="M236.89,390.57l1.46-3.71-3.31-8.34h1.17s2.45,6.21,2.72,7.08h.04c.27-.86,2.65-7.08,2.65-7.08h1.08l-4.65,12.05h-1.15Z"/><path class="cls-2" d="M248.5,387.19c-1.42,0-2.38-.72-2.84-1.49v4.88h-1.08v-12.05h.99v1.4c.41-.81,1.48-1.62,2.9-1.62,2.18,0,3.8,1.76,3.8,4.45s-1.62,4.43-3.76,4.43ZM248.39,379.21c-1.33,0-2.74,1.08-2.74,2.94v1.21c0,1.85,1.42,2.93,2.74,2.93,1.71,0,2.75-1.53,2.75-3.53s-1.04-3.55-2.75-3.55Z"/><path class="cls-2" d="M261.37,384.99c-.61,1.31-1.67,2.2-3.35,2.2-2.5,0-3.89-1.94-3.89-4.46s1.37-4.41,3.83-4.41,3.64,2.02,3.64,4.09v.45h-6.39c.09,1.89.92,3.47,2.81,3.47,1.33,0,1.93-.67,2.43-1.73l.92.4ZM255.28,381.98h5.2c-.09-1.73-1.1-2.81-2.57-2.81s-2.47,1.19-2.63,2.81Z"/><path class="cls-2" d="M263.98,378.53v-1.78c0-1.8,1.12-2.59,2.48-2.59.68,0,1.39.2,1.85.52l-.49.85c-.23-.16-.68-.45-1.31-.45-.9,0-1.46.65-1.46,1.69v1.76h2.02v.85h-2.02v7.6h-1.08v-7.6h-1.46v-.85h1.46Z"/><path class="cls-2" d="M273.95,385.73c-.45.72-1.55,1.46-3.02,1.46-1.64,0-2.67-.88-2.67-2.34,0-2.16,2.61-2.86,5.69-2.86v-.65c0-1.22-.65-2.14-2.12-2.14-1.39,0-2.05.77-2.14,1.84l-1.1-.16c.22-1.69,1.64-2.56,3.28-2.56,2,0,3.15,1.19,3.15,2.92v4.47c0,.56.09.97.2,1.28h-1.06c-.11-.22-.22-.7-.2-1.24ZM273.95,383.62v-.79c-2.7,0-4.59.58-4.59,1.96,0,.94.7,1.53,1.76,1.53,1.51,0,2.83-.99,2.83-2.7Z"/><path class="cls-2" d="M281.13,378.31c1.75,0,2.74.92,3.21,2.18l-.99.42c-.31-.99-.97-1.69-2.25-1.69-1.76,0-2.72,1.55-2.72,3.53s.97,3.55,2.72,3.55c1.35,0,1.89-.77,2.27-1.67l.99.4c-.61,1.31-1.58,2.18-3.26,2.18-2.48,0-3.83-1.96-3.83-4.45s1.31-4.43,3.87-4.43Z"/><path class="cls-2" d="M293.01,384.99c-.61,1.31-1.67,2.2-3.35,2.2-2.5,0-3.89-1.94-3.89-4.46s1.37-4.41,3.83-4.41,3.64,2.02,3.64,4.09v.45h-6.39c.09,1.89.92,3.47,2.81,3.47,1.33,0,1.93-.67,2.43-1.73l.92.4ZM286.93,381.98h5.2c-.09-1.73-1.1-2.81-2.57-2.81s-2.47,1.19-2.63,2.81Z"/><path class="cls-2" d="M302.35,387.19c-1.89,0-3.21-.88-3.37-2.67l1.04-.13c.07,1.1.77,1.95,2.34,1.95,1.42,0,2.2-.67,2.2-1.62s-.63-1.37-2.27-1.58c-1.91-.25-3.06-.85-3.06-2.39s1.46-2.43,3.01-2.43c1.78,0,3.02.88,3.22,2.32l-1.06.23c-.16-1.1-.83-1.71-2.2-1.71-1.04,0-1.89.56-1.89,1.51.02.95.61,1.31,2.29,1.55,1.85.25,3.04.83,3.04,2.41,0,1.49-1.21,2.56-3.29,2.56Z"/><path class="cls-2" d="M314.63,384.99c-.61,1.31-1.67,2.2-3.35,2.2-2.5,0-3.89-1.94-3.89-4.46s1.37-4.41,3.83-4.41,3.64,2.02,3.64,4.09v.45h-6.39c.09,1.89.92,3.47,2.81,3.47,1.33,0,1.93-.67,2.43-1.73l.92.4ZM308.54,381.98h5.2c-.09-1.73-1.1-2.81-2.57-2.81s-2.47,1.19-2.63,2.81Z"/><path class="cls-2" d="M323.76,384.99c-.61,1.31-1.67,2.2-3.35,2.2-2.5,0-3.89-1.94-3.89-4.46s1.37-4.41,3.83-4.41,3.64,2.02,3.64,4.09v.45h-6.39c.09,1.89.92,3.47,2.81,3.47,1.33,0,1.93-.67,2.43-1.73l.92.4ZM317.67,381.98h5.2c-.09-1.73-1.1-2.81-2.57-2.81s-2.47,1.19-2.63,2.81Z"/><path class="cls-2" d="M328.45,382.25l-1.13,1.06v3.66h-1.08v-12.6h1.08v7.69l3.83-3.53h1.35l-3.26,3.06,3.87,5.38h-1.3l-3.37-4.72Z"/><path class="cls-2" d="M337.2,387.19c-1.89,0-3.21-.88-3.37-2.67l1.04-.13c.07,1.1.77,1.95,2.34,1.95,1.42,0,2.2-.67,2.2-1.62s-.63-1.37-2.27-1.58c-1.91-.25-3.06-.85-3.06-2.39s1.46-2.43,3.01-2.43c1.78,0,3.02.88,3.22,2.32l-1.06.23c-.16-1.1-.83-1.71-2.2-1.71-1.04,0-1.89.56-1.89,1.51.02.95.61,1.31,2.29,1.55,1.85.25,3.04.83,3.04,2.41,0,1.49-1.21,2.56-3.29,2.56Z"/><path class="cls-2" d="M350.72,386.81c-.27.22-.83.38-1.42.38-1.22,0-1.84-.72-1.84-1.93v-5.89h-1.46v-.85h1.46v-2.45l1.08-.5v2.95h2v.85h-2v5.74c0,.72.27,1.15.9,1.15.29,0,.63-.11.86-.32l.41.86Z"/><path class="cls-2" d="M359.7,382.76c0,2.48-1.35,4.43-3.91,4.43s-3.91-1.94-3.91-4.43,1.35-4.45,3.91-4.45,3.91,1.96,3.91,4.45ZM353,382.76c0,1.93.92,3.55,2.79,3.55s2.79-1.62,2.79-3.55-.92-3.57-2.79-3.57-2.79,1.62-2.79,3.57Z"/><path class="cls-2" d="M369.62,378.31c1.75,0,2.74.92,3.21,2.18l-.99.42c-.31-.99-.97-1.69-2.25-1.69-1.76,0-2.72,1.55-2.72,3.53s.97,3.55,2.72,3.55c1.35,0,1.89-.77,2.27-1.67l.99.4c-.61,1.31-1.58,2.18-3.26,2.18-2.48,0-3.83-1.96-3.83-4.45s1.31-4.43,3.87-4.43Z"/><path class="cls-2" d="M382.07,382.76c0,2.48-1.35,4.43-3.91,4.43s-3.91-1.94-3.91-4.43,1.35-4.45,3.91-4.45,3.91,1.96,3.91,4.45ZM375.38,382.76c0,1.93.92,3.55,2.79,3.55s2.79-1.62,2.79-3.55-.92-3.57-2.79-3.57-2.79,1.62-2.79,3.57Z"/><path class="cls-2" d="M384.48,378.53h.99v1.4c.41-.85,1.48-1.62,2.92-1.62,1.64,0,2.86.97,2.86,2.88v5.78h-1.08v-5.56c0-1.46-.86-2.18-2-2.18-1.4,0-2.61,1.13-2.61,2.77v4.97h-1.08v-8.44Z"/><path class="cls-2" d="M392.96,378.53h1.15s2.34,6.19,2.72,7.4h.04c.38-1.21,2.7-7.4,2.7-7.4h1.08l-3.29,8.44h-1.1l-3.29-8.44Z"/><path class="cls-2" d="M409,384.99c-.61,1.31-1.67,2.2-3.35,2.2-2.5,0-3.89-1.94-3.89-4.46s1.37-4.41,3.83-4.41,3.64,2.02,3.64,4.09v.45h-6.39c.09,1.89.92,3.47,2.81,3.47,1.33,0,1.93-.67,2.43-1.73l.92.4ZM402.92,381.98h5.2c-.09-1.73-1.1-2.81-2.57-2.81s-2.47,1.19-2.63,2.81Z"/><path class="cls-2" d="M412.13,390.57l1.46-3.71-3.31-8.34h1.17s2.45,6.21,2.72,7.08h.04c.27-.86,2.65-7.08,2.65-7.08h1.08l-4.65,12.05h-1.15Z"/><path class="cls-2" d="M427.7,386.81c-.27.22-.83.38-1.42.38-1.22,0-1.84-.72-1.84-1.93v-5.89h-1.46v-.85h1.46v-2.45l1.08-.5v2.95h2v.85h-2v5.74c0,.72.27,1.15.9,1.15.29,0,.63-.11.86-.32l.41.86Z"/><path class="cls-2" d="M429.74,374.37h1.08v5.4c.45-.79,1.48-1.46,2.83-1.46,1.64,0,2.86.97,2.86,2.88v5.78h-1.08v-5.56c0-1.46-.86-2.18-2-2.18-1.4,0-2.61,1.13-2.61,2.77v4.97h-1.08v-12.6Z"/><path class="cls-2" d="M446.06,384.99c-.61,1.31-1.67,2.2-3.35,2.2-2.5,0-3.89-1.94-3.89-4.46s1.37-4.41,3.83-4.41,3.64,2.02,3.64,4.09v.45h-6.39c.09,1.89.92,3.47,2.81,3.47,1.33,0,1.93-.67,2.43-1.73l.92.4ZM439.98,381.98h5.2c-.09-1.73-1.1-2.81-2.57-2.81s-2.47,1.19-2.63,2.81Z"/><path class="cls-2" d="M455.41,387.19c-1.89,0-3.21-.88-3.37-2.67l1.04-.13c.07,1.1.77,1.95,2.34,1.95,1.42,0,2.2-.67,2.2-1.62s-.63-1.37-2.27-1.58c-1.91-.25-3.06-.85-3.06-2.39s1.46-2.43,3.01-2.43c1.78,0,3.02.88,3.22,2.32l-1.06.23c-.16-1.1-.83-1.71-2.2-1.71-1.04,0-1.89.56-1.89,1.51.02.95.61,1.31,2.29,1.55,1.85.25,3.04.83,3.04,2.41,0,1.49-1.21,2.56-3.29,2.56Z"/><path class="cls-2" d="M466.06,385.73c-.45.72-1.55,1.46-3.02,1.46-1.64,0-2.66-.88-2.66-2.34,0-2.16,2.61-2.86,5.69-2.86v-.65c0-1.22-.65-2.14-2.12-2.14-1.39,0-2.05.77-2.14,1.84l-1.1-.16c.22-1.69,1.64-2.56,3.28-2.56,2,0,3.15,1.19,3.15,2.92v4.47c0,.56.09.97.2,1.28h-1.06c-.11-.22-.22-.7-.2-1.24ZM466.06,383.62v-.79c-2.7,0-4.59.58-4.59,1.96,0,.94.7,1.53,1.76,1.53,1.51,0,2.83-.99,2.83-2.7Z"/><path class="cls-2" d="M475.39,381.41c0-1.46-.81-2.18-1.85-2.18-1.3,0-2.39,1.19-2.39,2.88v4.86h-1.08v-8.44h.99v1.4c.38-.86,1.37-1.62,2.7-1.62,1.15,0,2.09.54,2.5,1.6.56-.9,1.42-1.6,2.83-1.6,1.55,0,2.72.97,2.72,2.88v5.78h-1.08v-5.56c0-1.46-.81-2.18-1.85-2.18-1.26,0-2.39,1.19-2.39,2.79v4.95h-1.08v-5.56Z"/><path class="cls-2" d="M491.35,384.99c-.61,1.31-1.67,2.2-3.35,2.2-2.5,0-3.89-1.94-3.89-4.46s1.37-4.41,3.83-4.41,3.64,2.02,3.64,4.09v.45h-6.39c.09,1.89.92,3.47,2.81,3.47,1.33,0,1.93-.67,2.43-1.73l.92.4ZM485.27,381.98h5.2c-.09-1.73-1.1-2.81-2.57-2.81s-2.47,1.19-2.63,2.81Z"/><path class="cls-2" d="M503.09,385.73c-.45.72-1.55,1.46-3.02,1.46-1.64,0-2.66-.88-2.66-2.34,0-2.16,2.61-2.86,5.69-2.86v-.65c0-1.22-.65-2.14-2.12-2.14-1.39,0-2.05.77-2.14,1.84l-1.1-.16c.22-1.69,1.64-2.56,3.28-2.56,2,0,3.15,1.19,3.15,2.92v4.47c0,.56.09.97.2,1.28h-1.06c-.11-.22-.22-.7-.2-1.24ZM503.09,383.62v-.79c-2.7,0-4.59.58-4.59,1.96,0,.94.7,1.53,1.76,1.53,1.51,0,2.83-.99,2.83-2.7Z"/><path class="cls-2" d="M509.62,387.19c-1.89,0-3.21-.88-3.37-2.67l1.04-.13c.07,1.1.77,1.95,2.34,1.95,1.42,0,2.2-.67,2.2-1.62s-.63-1.37-2.27-1.58c-1.91-.25-3.06-.85-3.06-2.39s1.46-2.43,3.01-2.43c1.78,0,3.02.88,3.22,2.32l-1.06.23c-.16-1.1-.83-1.71-2.2-1.71-1.04,0-1.89.56-1.89,1.51.02.95.61,1.31,2.29,1.55,1.85.25,3.04.83,3.04,2.41,0,1.49-1.21,2.56-3.29,2.56Z"/><path class="cls-2" d="M519.18,387.19c-1.42,0-2.38-.72-2.84-1.49v4.88h-1.08v-12.05h.99v1.4c.41-.81,1.48-1.62,2.9-1.62,2.18,0,3.8,1.76,3.8,4.45s-1.62,4.43-3.76,4.43ZM519.07,379.21c-1.33,0-2.74,1.08-2.74,2.94v1.21c0,1.85,1.42,2.93,2.74,2.93,1.71,0,2.75-1.53,2.75-3.53s-1.04-3.55-2.75-3.55Z"/><path class="cls-2" d="M532.05,384.99c-.61,1.31-1.67,2.2-3.35,2.2-2.5,0-3.89-1.94-3.89-4.46s1.37-4.41,3.83-4.41,3.64,2.02,3.64,4.09v.45h-6.39c.09,1.89.92,3.47,2.81,3.47,1.33,0,1.93-.67,2.43-1.73l.92.4ZM525.96,381.98h5.2c-.09-1.73-1.1-2.81-2.57-2.81s-2.47,1.19-2.63,2.81Z"/><path class="cls-2" d="M537.81,378.31c1.75,0,2.74.92,3.21,2.18l-.99.42c-.31-.99-.97-1.69-2.25-1.69-1.76,0-2.72,1.55-2.72,3.53s.97,3.55,2.72,3.55c1.35,0,1.89-.77,2.27-1.67l.99.4c-.61,1.31-1.58,2.18-3.26,2.18-2.48,0-3.83-1.96-3.83-4.45s1.31-4.43,3.87-4.43Z"/><path class="cls-2" d="M546.7,386.81c-.27.22-.83.38-1.42.38-1.22,0-1.84-.72-1.84-1.93v-5.89h-1.46v-.85h1.46v-2.45l1.08-.5v2.95h2v.85h-2v5.74c0,.72.27,1.15.9,1.15.29,0,.63-.11.86-.32l.41.86Z"/><path class="cls-2" d="M560.18,382.76c0,2.48-1.35,4.43-3.91,4.43s-3.91-1.94-3.91-4.43,1.35-4.45,3.91-4.45,3.91,1.96,3.91,4.45ZM553.48,382.76c0,1.93.92,3.55,2.79,3.55s2.79-1.62,2.79-3.55-.92-3.57-2.79-3.57-2.79,1.62-2.79,3.57Z"/><path class="cls-2" d="M562.72,378.53v-1.78c0-1.8,1.12-2.59,2.48-2.59.68,0,1.39.2,1.85.52l-.49.85c-.23-.16-.68-.45-1.31-.45-.9,0-1.46.65-1.46,1.69v1.76h2.02v.85h-2.02v7.6h-1.08v-7.6h-1.46v-.85h1.46Z"/><path class="cls-2" d="M74.76,395.97h1.08v5.4c.45-.79,1.48-1.46,2.83-1.46,1.64,0,2.86.97,2.86,2.88v5.78h-1.08v-5.56c0-1.46-.86-2.18-2-2.18-1.4,0-2.61,1.13-2.61,2.77v4.97h-1.08v-12.6Z"/><path class="cls-2" d="M91.09,406.59c-.61,1.31-1.67,2.2-3.35,2.2-2.5,0-3.89-1.94-3.89-4.46s1.37-4.41,3.83-4.41,3.64,2.02,3.64,4.09v.45h-6.39c.09,1.89.92,3.47,2.81,3.47,1.33,0,1.93-.67,2.43-1.73l.92.4ZM85.01,403.58h5.2c-.09-1.73-1.1-2.81-2.57-2.81s-2.47,1.19-2.63,2.81Z"/><path class="cls-2" d="M97.91,401.13c-.2-.16-.47-.31-1.01-.31-1.13,0-2.25,1.15-2.25,2.93v4.81h-1.08v-8.44h.99v1.42c.36-.88,1.33-1.64,2.56-1.64.41,0,.85.07,1.1.22l-.31,1.01Z"/><path class="cls-2" d="M109.51,400.12s2.03,6.19,2.3,7.27h.04c.34-1.42,2.2-7.27,2.2-7.27h1.03l-2.74,8.44h-1.08s-1.85-5.67-2.23-7.08c-.4,1.4-2.23,7.08-2.23,7.08h-1.08l-2.74-8.44h1.1s1.91,6.01,2.2,7.27h.04c.38-1.26,2.29-7.27,2.3-7.27h.9Z"/><path class="cls-2" d="M124.18,404.36c0,2.48-1.35,4.43-3.91,4.43s-3.91-1.94-3.91-4.43,1.35-4.45,3.91-4.45,3.91,1.96,3.91,4.45ZM117.48,404.36c0,1.93.92,3.55,2.79,3.55s2.79-1.62,2.79-3.55-.92-3.57-2.79-3.57-2.79,1.62-2.79,3.57Z"/><path class="cls-2" d="M130.93,401.13c-.2-.16-.47-.31-1.01-.31-1.13,0-2.25,1.15-2.25,2.93v4.81h-1.08v-8.44h.99v1.42c.36-.88,1.33-1.64,2.56-1.64.41,0,.85.07,1.1.22l-.31,1.01Z"/><path class="cls-2" d="M135.08,403.85l-1.13,1.06v3.66h-1.08v-12.6h1.08v7.69l3.83-3.53h1.35l-3.26,3.06,3.87,5.38h-1.3l-3.37-4.72Z"/><path class="cls-2" d="M146.24,396.47c.45,0,.76.32.76.76s-.31.74-.76.74-.76-.32-.76-.74.31-.76.76-.76ZM145.7,400.12h1.08v8.44h-1.08v-8.44Z"/><path class="cls-2" d="M149.88,400.12h.99v1.4c.41-.85,1.48-1.62,2.92-1.62,1.64,0,2.86.97,2.86,2.88v5.78h-1.08v-5.56c0-1.46-.86-2.18-2-2.18-1.4,0-2.61,1.13-2.61,2.77v4.97h-1.08v-8.44Z"/><path class="cls-2" d="M167.54,408.41c-.27.22-.83.38-1.42.38-1.22,0-1.84-.72-1.84-1.93v-5.89h-1.46v-.85h1.46v-2.45l1.08-.5v2.95h2v.85h-2v5.74c0,.72.27,1.15.9,1.15.29,0,.63-.11.86-.32l.41.86Z"/><path class="cls-2" d="M169.57,395.97h1.08v5.4c.45-.79,1.48-1.46,2.83-1.46,1.64,0,2.86.97,2.86,2.88v5.78h-1.08v-5.56c0-1.46-.86-2.18-2-2.18-1.4,0-2.61,1.13-2.61,2.77v4.97h-1.08v-12.6Z"/><path class="cls-2" d="M185.9,406.59c-.61,1.31-1.67,2.2-3.35,2.2-2.5,0-3.89-1.94-3.89-4.46s1.37-4.41,3.83-4.41,3.64,2.02,3.64,4.09v.45h-6.39c.09,1.89.92,3.47,2.81,3.47,1.33,0,1.93-.67,2.43-1.73l.92.4ZM179.81,403.58h5.2c-.09-1.73-1.1-2.81-2.57-2.81s-2.47,1.19-2.63,2.81Z"/><path class="cls-2" d="M190.92,408.78c-1.89,0-3.21-.88-3.37-2.67l1.04-.13c.07,1.1.77,1.95,2.34,1.95,1.42,0,2.2-.67,2.2-1.62s-.63-1.37-2.27-1.58c-1.91-.25-3.06-.85-3.06-2.39s1.46-2.43,3.01-2.43c1.78,0,3.02.88,3.22,2.32l-1.06.23c-.16-1.1-.83-1.71-2.2-1.71-1.04,0-1.89.56-1.89,1.51.02.95.61,1.31,2.29,1.55,1.85.25,3.04.83,3.04,2.41,0,1.49-1.21,2.56-3.29,2.56Z"/><path class="cls-2" d="M203.2,406.59c-.61,1.31-1.67,2.2-3.35,2.2-2.5,0-3.89-1.94-3.89-4.46s1.37-4.41,3.83-4.41,3.64,2.02,3.64,4.09v.45h-6.39c.09,1.89.92,3.47,2.81,3.47,1.33,0,1.93-.67,2.43-1.73l.92.4ZM197.11,403.58h5.2c-.09-1.73-1.1-2.81-2.57-2.81s-2.47,1.19-2.63,2.81Z"/><path class="cls-2" d="M213.56,408.41c-.27.22-.83.38-1.42.38-1.22,0-1.84-.72-1.84-1.93v-5.89h-1.46v-.85h1.46v-2.45l1.08-.5v2.95h2v.85h-2v5.74c0,.72.27,1.15.9,1.15.29,0,.63-.11.86-.32l.41.86Z"/><path class="cls-2" d="M216.33,412.17l1.46-3.71-3.31-8.34h1.17s2.45,6.21,2.72,7.08h.04c.27-.86,2.65-7.08,2.65-7.08h1.08l-4.65,12.05h-1.15Z"/><path class="cls-2" d="M227.94,408.78c-1.42,0-2.38-.72-2.84-1.49v4.88h-1.08v-12.05h.99v1.4c.41-.81,1.48-1.62,2.9-1.62,2.18,0,3.8,1.76,3.8,4.45s-1.62,4.43-3.76,4.43ZM227.84,400.81c-1.33,0-2.74,1.08-2.74,2.94v1.21c0,1.85,1.42,2.93,2.74,2.93,1.71,0,2.75-1.53,2.75-3.53s-1.04-3.55-2.75-3.55Z"/><path class="cls-2" d="M241.39,404.36c0,2.48-1.35,4.43-3.91,4.43s-3.91-1.94-3.91-4.43,1.35-4.45,3.91-4.45,3.91,1.96,3.91,4.45ZM234.69,404.36c0,1.93.92,3.55,2.79,3.55s2.79-1.62,2.79-3.55-.92-3.57-2.79-3.57-2.79,1.62-2.79,3.57Z"/><path class="cls-2" d="M245.65,407.4l2.47.23c2.11.2,2.63,1.03,2.63,2.05,0,1.73-1.73,2.68-4.12,2.68s-3.69-.77-3.69-2.25c0-1.01.56-1.67,1.33-2.04-.65-.27-.95-.77-.95-1.35,0-.72.49-1.24,1.24-1.42-.61-.4-1.19-1.15-1.19-2.32,0-1.98,1.58-3.08,3.35-3.08.76,0,1.48.22,2.05.59.36-.45.81-.77,1.53-.77.32,0,.61.05.83.14l-.22.86c-.16-.13-.41-.2-.68-.2-.47,0-.76.23-.9.43.45.5.74,1.17.74,1.98,0,1.91-1.58,2.99-3.35,2.99-.79,0-1.15-.22-1.42-.22-.45,0-.97.36-.97.83,0,.56.5.76,1.33.85ZM249.72,409.83c0-.83-.5-1.1-1.8-1.24l-2.81-.25c-.68.27-1.13.92-1.13,1.64,0,1.04,1.01,1.62,2.68,1.62,1.82,0,3.06-.76,3.06-1.76ZM246.72,405.17c1.26,0,2.27-.85,2.27-2.21s-1.03-2.27-2.27-2.27-2.27.85-2.27,2.27,1.01,2.21,2.27,2.21Z"/><path class="cls-2" d="M257.21,401.13c-.2-.16-.47-.31-1.01-.31-1.13,0-2.25,1.15-2.25,2.93v4.81h-1.08v-8.44h.99v1.42c.36-.88,1.33-1.64,2.56-1.64.41,0,.85.07,1.1.22l-.31,1.01Z"/><path class="cls-2" d="M264.03,407.33c-.45.72-1.55,1.46-3.02,1.46-1.64,0-2.67-.88-2.67-2.34,0-2.16,2.61-2.86,5.69-2.86v-.65c0-1.22-.65-2.14-2.12-2.14-1.39,0-2.05.77-2.14,1.84l-1.1-.16c.22-1.69,1.64-2.56,3.28-2.56,2,0,3.15,1.19,3.15,2.92v4.47c0,.56.09.97.2,1.28h-1.06c-.11-.22-.22-.7-.2-1.24ZM264.03,405.22v-.79c-2.7,0-4.59.58-4.59,1.96,0,.94.7,1.53,1.76,1.53,1.51,0,2.83-.99,2.83-2.7Z"/><path class="cls-2" d="M271.95,408.78c-1.42,0-2.38-.72-2.84-1.49v4.88h-1.08v-12.05h.99v1.4c.41-.81,1.48-1.62,2.9-1.62,2.18,0,3.8,1.76,3.8,4.45s-1.62,4.43-3.76,4.43ZM271.85,400.81c-1.33,0-2.74,1.08-2.74,2.94v1.21c0,1.85,1.42,2.93,2.74,2.93,1.71,0,2.75-1.53,2.75-3.53s-1.04-3.55-2.75-3.55Z"/><path class="cls-2" d="M278.13,395.97h1.08v5.4c.45-.79,1.48-1.46,2.83-1.46,1.64,0,2.86.97,2.86,2.88v5.78h-1.08v-5.56c0-1.46-.86-2.18-2-2.18-1.4,0-2.61,1.13-2.61,2.77v4.97h-1.08v-12.6Z"/><path class="cls-2" d="M288.44,396.47c.45,0,.76.32.76.76s-.31.74-.76.74-.76-.32-.76-.74.31-.76.76-.76ZM287.9,400.12h1.08v8.44h-1.08v-8.44Z"/><path class="cls-2" d="M295.26,399.91c1.75,0,2.74.92,3.21,2.18l-.99.42c-.31-.99-.97-1.69-2.25-1.69-1.76,0-2.72,1.55-2.72,3.53s.97,3.55,2.72,3.55c1.35,0,1.89-.77,2.27-1.67l.99.4c-.61,1.31-1.58,2.18-3.26,2.18-2.48,0-3.83-1.96-3.83-4.45s1.31-4.43,3.87-4.43Z"/><path class="cls-2" d="M311.46,406.59c-.61,1.31-1.67,2.2-3.35,2.2-2.5,0-3.89-1.94-3.89-4.46s1.37-4.41,3.83-4.41,3.64,2.02,3.64,4.09v.45h-6.39c.09,1.89.92,3.47,2.81,3.47,1.33,0,1.93-.67,2.43-1.73l.92.4ZM305.38,403.58h5.2c-.09-1.73-1.1-2.81-2.57-2.81s-2.47,1.19-2.63,2.81Z"/><path class="cls-2" d="M312.52,408.57l3.08-4.39-2.83-4.05h1.26l2.18,3.19,2.21-3.19h1.13l-2.77,3.96,3.11,4.48h-1.26l-2.48-3.62-2.48,3.62h-1.15Z"/><path class="cls-2" d="M325.77,408.78c-1.42,0-2.38-.72-2.84-1.49v4.88h-1.08v-12.05h.99v1.4c.41-.81,1.48-1.62,2.9-1.62,2.18,0,3.8,1.76,3.8,4.45s-1.62,4.43-3.76,4.43ZM325.66,400.81c-1.33,0-2.74,1.08-2.74,2.94v1.21c0,1.85,1.42,2.93,2.74,2.93,1.71,0,2.75-1.53,2.75-3.53s-1.04-3.55-2.75-3.55Z"/><path class="cls-2" d="M331.94,395.97h1.08v12.6h-1.08v-12.6Z"/><path class="cls-2" d="M343.25,404.36c0,2.48-1.35,4.43-3.91,4.43s-3.91-1.94-3.91-4.43,1.35-4.45,3.91-4.45,3.91,1.96,3.91,4.45ZM336.55,404.36c0,1.93.92,3.55,2.79,3.55s2.79-1.62,2.79-3.55-.92-3.57-2.79-3.57-2.79,1.62-2.79,3.57Z"/><path class="cls-2" d="M350,401.13c-.2-.16-.47-.31-1.01-.31-1.13,0-2.25,1.15-2.25,2.93v4.81h-1.08v-8.44h.99v1.42c.36-.88,1.33-1.64,2.56-1.64.41,0,.85.07,1.1.22l-.31,1.01Z"/><path class="cls-2" d="M356.82,407.33c-.45.72-1.55,1.46-3.02,1.46-1.64,0-2.66-.88-2.66-2.34,0-2.16,2.61-2.86,5.69-2.86v-.65c0-1.22-.65-2.14-2.12-2.14-1.39,0-2.05.77-2.14,1.84l-1.1-.16c.22-1.69,1.64-2.56,3.28-2.56,2,0,3.15,1.19,3.15,2.92v4.47c0,.56.09.97.2,1.28h-1.06c-.11-.22-.22-.7-.2-1.24ZM356.82,405.22v-.79c-2.7,0-4.59.58-4.59,1.96,0,.94.7,1.53,1.76,1.53,1.51,0,2.83-.99,2.83-2.7Z"/><path class="cls-2" d="M364.2,408.41c-.27.22-.83.38-1.42.38-1.22,0-1.84-.72-1.84-1.93v-5.89h-1.46v-.85h1.46v-2.45l1.08-.5v2.95h2v.85h-2v5.74c0,.72.27,1.15.9,1.15.29,0,.63-.11.86-.32l.41.86Z"/><path class="cls-2" d="M366.77,396.47c.45,0,.76.32.76.76s-.31.74-.76.74-.76-.32-.76-.74.31-.76.76-.76ZM366.23,400.12h1.08v8.44h-1.08v-8.44Z"/><path class="cls-2" d="M377.54,404.36c0,2.48-1.35,4.43-3.91,4.43s-3.91-1.94-3.91-4.43,1.35-4.45,3.91-4.45,3.91,1.96,3.91,4.45ZM370.84,404.36c0,1.93.92,3.55,2.79,3.55s2.79-1.62,2.79-3.55-.92-3.57-2.79-3.57-2.79,1.62-2.79,3.57Z"/><path class="cls-2" d="M379.95,400.12h.99v1.4c.41-.85,1.48-1.62,2.92-1.62,1.64,0,2.86.97,2.86,2.88v5.78h-1.08v-5.56c0-1.46-.86-2.18-2-2.18-1.4,0-2.61,1.13-2.61,2.77v4.97h-1.08v-8.44Z"/><path class="cls-2" d="M392.26,408.78c-1.89,0-3.21-.88-3.37-2.67l1.04-.13c.07,1.1.77,1.95,2.34,1.95,1.42,0,2.2-.67,2.2-1.62s-.63-1.37-2.27-1.58c-1.91-.25-3.06-.85-3.06-2.39s1.46-2.43,3.01-2.43c1.78,0,3.02.88,3.22,2.32l-1.06.23c-.16-1.1-.83-1.71-2.2-1.71-1.04,0-1.89.56-1.89,1.51.02.95.61,1.31,2.29,1.55,1.85.25,3.04.83,3.04,2.41,0,1.49-1.21,2.56-3.29,2.56Z"/></svg>