<?xml version="1.0" encoding="UTF-8"?><svg id="Calque_1" xmlns="http://www.w3.org/2000/svg" viewBox="0 0 1920 1080"><defs><style>.cls-1,.cls-2{stroke-width:0px;}.cls-2{fill:#f6f6f6;}</style></defs><rect class="cls-2" width="1920" height="1080"/><rect class="cls-1" x="668.84" y="463.31" width="91.05" height="27.92" transform="translate(-128.25 644.92) rotate(-45)"/><path class="cls-1" d="M692.04,530.23l-30.63-30.63,75.27-75.27,30.63,30.63-75.27,75.27ZM683.19,499.59l8.86,8.86,53.5-53.49-8.86-8.86-53.5,53.49Z"/><rect class="cls-1" x="615.07" y="583.35" width="100.88" height="27.92" transform="translate(-227.44 645.54) rotate(-45)"/><path class="cls-1" d="M639.72,654.31l-31.21-31.2,82.8-82.8,31.21,31.21-82.8,82.8ZM631.44,623.1l8.28,8.28,59.87-59.87-8.28-8.28-59.87,59.87Z"/><rect class="cls-1" x="703.92" y="543.81" width="91.05" height="27.92" transform="translate(613.91 -366.57) rotate(45)"/><path class="cls-1" d="M771.77,610.72l-75.27-75.27,30.63-30.63,75.27,75.27-30.63,30.63ZM718.27,535.45l53.5,53.5,8.86-8.86-53.5-53.5-8.86,8.86Z"/><path class="cls-1" d="M761.67,530.23l-30.63-30.63,75.27-75.27,30.63,30.63-75.27,75.27Z"/><rect class="cls-1" x="703.92" y="588.76" width="91.05" height="27.92" transform="translate(-206.68 706.48) rotate(-45)"/><path class="cls-1" d="M727.13,655.68l-30.63-30.63,75.27-75.27,30.63,30.63-75.27,75.27ZM718.27,625.04l8.86,8.86,53.5-53.5-8.86-8.86-53.5,53.5Z"/><rect class="cls-1" x="598.1" y="463.31" width="91.05" height="27.92" transform="translate(-148.97 594.9) rotate(-45)"/><path class="cls-1" d="M621.31,530.23l-30.63-30.63,75.27-75.27,30.63,30.63-75.27,75.27ZM612.45,499.59l8.86,8.86,53.5-53.49-8.86-8.86-53.5,53.49Z"/><path class="cls-1" d="M925.75,436.89l-27.53,132.38h2.93l42.47-132.38h27.82l-23.14,132.38h2.93l37.78-132.38h42.47l-69.7,205.01h-47.44l17.28-96.94h-2.93l-31.04,96.94h-47.45l33.39-205.01h42.17Z"/><path class="cls-1" d="M1115.54,436.89l-29.87,205.01h-42.47l22.26-132.38h-2.64l-43.93,132.38h-42.17l72.63-205.01h66.19ZM1025.04,592.11l9.08-36.9h36.32l-9.08,36.9h-36.32Z"/><path class="cls-1" d="M1184.94,436.89l-41.88,168.11h32.51l-9.08,36.9h-74.68l50.96-205.01h42.17Z"/><path class="cls-1" d="M1244.98,521.23h4.1l35.44-84.35h44.81l-49.79,102.5,1.17,102.5h-45.1l4.69-84.05h-4.1l-21.09,84.05h-42.17l50.96-205.01h42.17l-21.09,84.35Z"/><rect class="cls-1" x="906.27" y="990.15" width="16.8" height="5.15" transform="translate(-434.06 937.53) rotate(-45)"/><path class="cls-1" d="M910.55,1002.5l-5.65-5.65,13.89-13.89,5.65,5.65-13.89,13.89ZM908.92,996.84l1.63,1.63,9.87-9.87-1.63-1.63-9.87,9.87Z"/><rect class="cls-1" x="896.35" y="1012.3" width="18.62" height="5.15" transform="translate(-452.37 937.65) rotate(-45)"/><path class="cls-1" d="M900.89,1025.4l-5.76-5.76,15.28-15.28,5.76,5.76-15.28,15.28ZM899.37,1019.64l1.53,1.53,11.05-11.05-1.53-1.53-11.05,11.05Z"/><rect class="cls-1" x="912.74" y="1005" width="16.8" height="5.15" transform="translate(982.26 -356.23) rotate(45)"/><path class="cls-1" d="M925.26,1017.35l-13.89-13.89,5.65-5.65,13.89,13.89-5.65,5.65ZM915.39,1003.46l9.87,9.87,1.63-1.63-9.87-9.87-1.63,1.63Z"/><path class="cls-1" d="M923.4,1002.5l-5.65-5.65,13.89-13.89,5.65,5.65-13.89,13.89Z"/><rect class="cls-1" x="912.74" y="1013.3" width="16.8" height="5.15" transform="translate(-448.54 948.89) rotate(-45)"/><path class="cls-1" d="M917.03,1025.65l-5.65-5.65,13.89-13.89,5.65,5.65-13.89,13.89ZM915.39,1020l1.63,1.63,9.87-9.87-1.63-1.63-9.87,9.87Z"/><rect class="cls-1" x="893.21" y="990.15" width="16.8" height="5.15" transform="translate(-437.89 928.3) rotate(-45)"/><path class="cls-1" d="M897.5,1002.5l-5.65-5.65,13.89-13.89,5.65,5.65-13.89,13.89ZM895.86,996.84l1.63,1.63,9.87-9.87-1.63-1.63-9.87,9.87Z"/><path class="cls-1" d="M953.68,985.27l-5.08,24.43h.54l7.84-24.43h5.13l-4.27,24.43h.54l6.97-24.43h7.84l-12.86,37.83h-8.76l3.19-17.89h-.54l-5.73,17.89h-8.76l6.16-37.83h7.78Z"/><path class="cls-1" d="M988.7,985.27l-5.51,37.83h-7.84l4.11-24.43h-.49l-8.11,24.43h-7.78l13.4-37.83h12.21ZM972,1013.92l1.68-6.81h6.7l-1.68,6.81h-6.7Z"/><path class="cls-1" d="M1001.51,985.27l-7.73,31.02h6l-1.68,6.81h-13.78l9.4-37.83h7.78Z"/><path class="cls-1" d="M1012.59,1000.84h.76l6.54-15.57h8.27l-9.19,18.92.22,18.92h-8.32l.86-15.51h-.76l-3.89,15.51h-7.78l9.4-37.83h7.78l-3.89,15.57Z"/></svg>