<?xml version="1.0" encoding="UTF-8"?><svg id="Calque_1" xmlns="http://www.w3.org/2000/svg" viewBox="0 0 1920 1080"><defs><style>.cls-1{fill:none;stroke:#000;stroke-width:2px;}.cls-2,.cls-3,.cls-4{stroke-width:0px;}.cls-3{fill:#f6f6f6;}.cls-4{fill:#fff;}</style></defs><rect class="cls-3" width="1920" height="1080"/><path class="cls-2" d="M396.6,712.48v9.52h5.62v1.2h-6.97v-10.72h1.35Z"/><path class="cls-2" d="M402.71,719.38c0-2.38,1.41-4.05,3.75-4.05s3.73,1.67,3.73,4.05-1.41,4.05-3.73,4.05-3.75-1.67-3.75-4.05ZM408.93,719.38c0-1.63-.76-3-2.47-3s-2.49,1.36-2.49,3,.77,3,2.49,3,2.47-1.36,2.47-3Z"/><path class="cls-2" d="M417.04,721.61h-.03c-.45.66-1.17,1.2-2.43,1.2-1.89,0-3.42-1.22-3.42-3.73s1.53-3.73,3.42-3.73c1.26,0,1.98.57,2.43,1.15h.03v-.94h1.2v7.14c0,2.18-1.36,3.25-3.51,3.25s-3.22-.99-3.34-2.41h1.26c.15.78.72,1.36,2.08,1.36,1.48,0,2.31-.61,2.31-2.08v-1.2ZM412.41,719.08c0,1.5.74,2.68,2.31,2.68,1.42,0,2.31-.89,2.31-2.68s-.89-2.69-2.31-2.69c-1.57,0-2.31,1.19-2.31,2.69Z"/><path class="cls-2" d="M419.54,719.38c0-2.38,1.41-4.05,3.75-4.05s3.73,1.67,3.73,4.05-1.41,4.05-3.73,4.05-3.75-1.67-3.75-4.05ZM425.76,719.38c0-1.63-.76-3-2.47-3s-2.49,1.36-2.49,3,.77,3,2.49,3,2.47-1.36,2.47-3Z"/><path class="cls-2" d="M437.31,716.54v-4.06h1.2v10.72h-1.2v-.95h-.03c-.45.59-1.17,1.16-2.4,1.16-1.92,0-3.45-1.51-3.45-4.03s1.53-4.03,3.45-4.03c1.23,0,1.95.54,2.4,1.2h.03ZM437.31,719.38c0-1.8-.89-2.98-2.31-2.98-1.57,0-2.31,1.49-2.31,2.98s.74,2.99,2.31,2.99c1.42,0,2.31-1.19,2.31-2.99Z"/><path class="cls-2" d="M439.82,719.36c0-2.44,1.46-4.03,3.72-4.03s3.54,1.53,3.54,3.76c0,.23,0,.48-.02.6h-5.98c.03,1.35.79,2.7,2.48,2.7,1.5,0,2.07-1,2.21-1.54h1.21c-.39,1.43-1.47,2.58-3.44,2.58-2.41,0-3.72-1.74-3.72-4.06ZM441.08,718.64h4.73c0-1.26-.9-2.28-2.33-2.28-1.32,0-2.32.95-2.4,2.28Z"/><path class="cls-2" d="M449.58,722.21v3.64h-1.2v-10.3h1.2v.94h.03c.45-.58,1.17-1.15,2.4-1.15,1.92,0,3.45,1.51,3.45,4.03s-1.53,4.03-3.45,4.03c-1.23,0-1.95-.54-2.4-1.2h-.03ZM449.58,719.38c0,1.8.88,2.99,2.31,2.99,1.57,0,2.31-1.49,2.31-2.99s-.73-2.98-2.31-2.98c-1.43,0-2.31,1.19-2.31,2.98Z"/><path class="cls-2" d="M459.56,722.36c1.35,0,2.25-.85,2.25-2.04v-4.77h1.2v7.65h-1.2v-.92h-.03c-.41.54-1.22,1.12-2.52,1.12-1.4,0-2.56-.76-2.56-2.52v-5.34h1.2v5.04c0,.99.47,1.77,1.67,1.77Z"/><path class="cls-2" d="M466.05,712.63v1.44h-1.44v-1.44h1.44ZM465.93,715.55v7.65h-1.2v-7.65h1.2Z"/><path class="cls-2" d="M473.64,721.06c0,1.44-1.12,2.35-3.07,2.35-2.21,0-3.39-1.18-3.44-2.76h1.26c.06.93.6,1.71,2.18,1.71,1.47,0,1.81-.68,1.81-1.26,0-1.05-1.1-1.16-2.04-1.36-1.33-.28-2.91-.66-2.91-2.25,0-1.29,1.04-2.14,2.79-2.14,1.98,0,3,1.08,3.12,2.4h-1.26c-.12-.58-.42-1.35-1.84-1.35-1.08,0-1.54.44-1.54,1.05,0,.89.97.96,2.04,1.21,1.37.32,2.91.71,2.91,2.4Z"/><path class="cls-2" d="M478.23,716.47c0-2.15,1.17-3.84,3.73-3.84,1.77,0,3.3,1.12,3.3,3.1s-1.62,2.95-3.13,3.84c-1.17.68-2.28,1.32-2.56,2.4v.03h5.55v1.2h-7.19c0-1.88,1.19-3.34,3.09-4.45,1.94-1.12,2.83-1.48,2.83-3,0-.87-.33-1.92-1.92-1.92-1.81,0-2.29,1.21-2.29,2.64h-1.41Z"/><path class="cls-2" d="M486.47,718.03c0-2.94,1.15-5.4,3.99-5.4s3.99,2.46,3.99,5.4-1.15,5.38-3.99,5.38-3.99-2.44-3.99-5.38ZM493.04,718.03c0-2.2-.6-4.2-2.58-4.2s-2.58,1.99-2.58,4.2.6,4.18,2.58,4.18,2.58-1.98,2.58-4.18Z"/><path class="cls-2" d="M499.05,712.84v10.36h-1.35v-7.9c-.45.44-1.23.51-2.16.51v-1.12c1.94-.06,2.29-.6,2.46-1.84h1.05Z"/><path class="cls-2" d="M500.88,718.03c0-2.94,1.15-5.4,3.99-5.4s3.99,2.46,3.99,5.4-1.15,5.38-3.99,5.38-3.99-2.44-3.99-5.38ZM507.45,718.03c0-2.2-.6-4.2-2.58-4.2s-2.58,1.99-2.58,4.2.6,4.18,2.58,4.18,2.58-1.98,2.58-4.18Z"/><path class="cls-2" d="M1464.31,712.48h1.65l5.35,8.8h.03v-8.8h1.35v10.72h-1.65l-5.35-8.8h-.03v8.8h-1.35v-10.72Z"/><path class="cls-2" d="M1474.08,719.38c0-2.38,1.41-4.05,3.75-4.05s3.73,1.67,3.73,4.05-1.41,4.05-3.73,4.05-3.75-1.67-3.75-4.05ZM1480.3,719.38c0-1.63-.76-3-2.47-3s-2.49,1.36-2.49,3,.76,3,2.49,3,2.47-1.36,2.47-3Z"/><path class="cls-2" d="M1485.66,722.36c1.35,0,2.25-.85,2.25-2.04v-4.77h1.2v7.65h-1.2v-.92h-.03c-.41.54-1.22,1.12-2.52,1.12-1.39,0-2.56-.76-2.56-2.52v-5.34h1.2v5.04c0,.99.47,1.77,1.67,1.77Z"/><path class="cls-2" d="M1491.34,715.55l2.13,6.45h.01l2.1-6.45h1.29l-2.75,7.65h-1.36l-2.75-7.65h1.32Z"/><path class="cls-2" d="M1497.15,719.36c0-2.44,1.46-4.03,3.72-4.03s3.54,1.53,3.54,3.76c0,.23,0,.48-.02.6h-5.98c.03,1.35.79,2.7,2.47,2.7,1.5,0,2.07-1,2.21-1.54h1.21c-.39,1.43-1.47,2.58-3.43,2.58-2.42,0-3.72-1.74-3.72-4.06ZM1498.41,718.64h4.72c0-1.26-.9-2.28-2.33-2.28-1.32,0-2.32.95-2.4,2.28Z"/><path class="cls-2" d="M1505.37,721.24c0-1.75,1.29-2.22,3.27-2.59,1.3-.24,1.9-.39,1.9-1.14,0-.6-.33-1.12-1.59-1.12-1.46,0-1.88.44-1.95,1.54h-1.26c.08-1.47,1-2.59,3.25-2.59,1.42,0,2.71.6,2.71,2.47v3.68c0,.6.09.9.39.9.04,0,.09,0,.18-.01v.84c-.2.04-.38.07-.58.07-.66,0-1.07-.25-1.14-1.2h-.03c-.5.82-1.37,1.33-2.64,1.33-1.54,0-2.52-.89-2.52-2.17ZM1510.54,720.25v-1.22c-.22.24-.97.44-1.8.6-1.48.31-2.12.66-2.12,1.54,0,.75.39,1.19,1.38,1.19,1.44,0,2.54-.65,2.54-2.11Z"/><path class="cls-2" d="M1516.17,722.36c1.35,0,2.25-.85,2.25-2.04v-4.77h1.2v7.65h-1.2v-.92h-.03c-.41.54-1.22,1.12-2.52,1.12-1.39,0-2.56-.76-2.56-2.52v-5.34h1.2v5.04c0,.99.47,1.77,1.67,1.77Z"/><path class="cls-2" d="M1525.92,712.48v10.72h-1.2v-10.72h1.2Z"/><path class="cls-2" d="M1527.22,719.38c0-2.38,1.41-4.05,3.75-4.05s3.74,1.67,3.74,4.05-1.41,4.05-3.74,4.05-3.75-1.67-3.75-4.05ZM1533.45,719.38c0-1.63-.76-3-2.47-3s-2.49,1.36-2.49,3,.77,3,2.49,3,2.47-1.36,2.47-3Z"/><path class="cls-2" d="M1541.55,721.61h-.03c-.45.66-1.17,1.2-2.43,1.2-1.89,0-3.42-1.22-3.42-3.73s1.53-3.73,3.42-3.73c1.26,0,1.98.57,2.43,1.15h.03v-.94h1.2v7.14c0,2.18-1.36,3.25-3.51,3.25s-3.22-.99-3.34-2.41h1.26c.15.78.72,1.36,2.08,1.36,1.49,0,2.31-.61,2.31-2.08v-1.2ZM1536.93,719.08c0,1.5.74,2.68,2.31,2.68,1.42,0,2.31-.89,2.31-2.68s-.89-2.69-2.31-2.69c-1.57,0-2.31,1.19-2.31,2.69Z"/><path class="cls-2" d="M1544.05,719.38c0-2.38,1.41-4.05,3.75-4.05s3.73,1.67,3.73,4.05-1.41,4.05-3.73,4.05-3.75-1.67-3.75-4.05ZM1550.28,719.38c0-1.63-.76-3-2.47-3s-2.49,1.36-2.49,3,.76,3,2.49,3,2.47-1.36,2.47-3Z"/><rect class="cls-2" x="1315.25" y="518.71" width="60.18" height="18.45" transform="translate(20.74 1105.93) rotate(-45)"/><path class="cls-2" d="M1330.59,562.93l-20.24-20.24,49.75-49.75,20.24,20.24-49.75,49.75ZM1324.73,542.68l5.85,5.85,35.35-35.35-5.85-5.85-35.35,35.35Z"/><rect class="cls-2" x="1279.72" y="598.03" width="66.67" height="18.45" transform="translate(-44.81 1106.33) rotate(-45)"/><path class="cls-2" d="M1296.01,644.93l-20.62-20.62,54.72-54.72,20.62,20.62-54.72,54.72ZM1290.53,624.31l5.47,5.47,39.57-39.57-5.47-5.47-39.57,39.57Z"/><rect class="cls-2" x="1338.44" y="571.91" width="60.18" height="18.45" transform="translate(811.76 -797.49) rotate(45)"/><path class="cls-2" d="M1383.28,616.13l-49.75-49.75,20.24-20.24,49.75,49.75-20.24,20.24ZM1347.92,566.38l35.35,35.35,5.85-5.85-35.35-35.35-5.85,5.85Z"/><path class="cls-2" d="M1376.6,562.93l-20.24-20.24,49.75-49.75,20.24,20.24-49.75,49.75Z"/><rect class="cls-2" x="1338.44" y="601.61" width="60.18" height="18.45" transform="translate(-31.1 1146.61) rotate(-45)"/><path class="cls-2" d="M1353.78,645.84l-20.24-20.24,49.75-49.75,20.24,20.24-49.75,49.75ZM1347.92,625.59l5.85,5.85,35.35-35.35-5.85-5.85-35.35,35.35Z"/><rect class="cls-2" x="1268.5" y="518.71" width="60.18" height="18.45" transform="translate(7.04 1072.87) rotate(-45)"/><path class="cls-2" d="M1283.84,562.93l-20.24-20.24,49.75-49.75,20.24,20.24-49.75,49.75ZM1277.99,542.68l5.85,5.85,35.35-35.35-5.85-5.85-35.35,35.35Z"/><path class="cls-2" d="M1485.05,501.24l-18.19,87.49h1.94l28.07-87.49h18.39l-15.29,87.49h1.94l24.97-87.49h28.07l-46.07,135.49h-31.36l11.42-64.07h-1.94l-20.52,64.07h-31.36l22.07-135.49h27.87Z"/><path class="cls-2" d="M1610.47,501.24l-19.74,135.49h-28.07l14.71-87.49h-1.74l-29.03,87.49h-27.87l48-135.49h43.74ZM1550.66,603.82l6-24.39h24l-6,24.39h-24Z"/><path class="cls-2" d="M1656.34,501.24l-27.68,111.1h21.48l-6,24.39h-49.36l33.68-135.49h27.87Z"/><path class="cls-2" d="M1696.02,556.98h2.71l23.42-55.74h29.61l-32.9,67.74.77,67.74h-29.81l3.1-55.55h-2.71l-13.94,55.55h-27.87l33.68-135.49h27.87l-13.94,55.74Z"/><g id="uwLRMf"><path class="cls-2" d="M207.65,555.78c-3.44,4.09-6.93,8.15-10.33,12.27-7.59,9.23-15.06,18.55-22.77,27.68-1.32,1.56-3.58,2.32-6.32,4.01v-59.29h6.66v41.65c.42.2.84.4,1.25.61,3.82-4.57,7.68-9.1,11.46-13.71,7.15-8.73,14.17-17.59,21.48-26.19,1.16-1.36,3.58-1.66,5.42-2.45.52,1.58,1.48,3.15,1.5,4.74.13,11.48.07,22.96.09,34.44,0,.59.21,1.19.61,3.34,3.46-6.72,6.27-12.19,9.1-17.66,3.28-6.35,6.62-12.67,9.86-19.04,3.14-6.18,3.1-6.2,10.65-5.63-.45,1.27-.74,2.47-1.29,3.53-8.83,17.14-17.81,34.2-26.46,51.43-1.87,3.72-4.72,3.24-7.56,2.98-3.79-.35-2.21-3.56-2.23-5.53-.14-12.25-.07-24.5-.07-36.75-.35-.15-.7-.29-1.06-.44Z"/><path class="cls-2" d="M552.45,569.6c-.04-18.26,12.77-30.51,31.97-30.57,18.81-.05,32.38,12.71,32.36,30.43-.02,18.12-13.02,30.3-32.28,30.26-18.73-.04-32.01-12.52-32.04-30.12ZM584.8,546.16c-14.47-.09-24.67,9.34-24.77,22.9-.11,14,9.82,23.49,24.62,23.55,14.19.05,24.4-9.39,24.51-22.65.11-14.19-9.63-23.7-24.36-23.79Z"/><path class="cls-2" d="M663.87,574.4c3.76,4.14,7.2,7.91,10.63,11.69,3.44,3.8,6.87,7.61,10.74,11.9-5.43.93-9.82,1.46-13.6-3.33-4.73-5.99-10.11-11.46-15.25-17.12-1.9-2.1-14.63-3.73-16.5-1.93-.79.75-1,2.37-1.02,3.6-.09,5.16-.06,10.33.04,15.5.05,2.54-.48,3.96-3.58,3.97-3.19,0-3.96-1.23-3.95-4.14.09-16.66.13-33.33-.02-49.99-.03-3.63,1.32-4.52,4.72-4.39,6.66.24,13.33.05,19.99.07,10.91.03,17.78,4.75,20,13.69,1.98,8.01-1.87,14.85-12.19,20.5ZM638.88,547.41c0,2.4,0,4.04,0,5.68,0,3.99-.21,8.01.14,11.97.09,1.05,1.89,2.73,2.95,2.77,5.65.21,11.33.26,16.96-.18,5.31-.41,9.53-5.06,9.61-9.8.09-4.78-3.97-9.96-9.07-10.32-6.59-.48-13.24-.12-20.59-.12Z"/><path class="cls-2" d="M428.58,587.83c2.71-2.47,4.24-5.31,9.08-1.45,8.23,6.56,18.21,8.14,28.23,3.95,2.36-.98,5.18-3.98,5.33-6.22.14-2.18-2.37-5.6-4.59-6.66-6.26-3-13-4.97-19.47-7.56-3.22-1.29-6.48-2.73-9.31-4.68-7.91-5.46-7.57-16.51.46-21.81,11.57-7.62,32.53-4.38,41.65,6.56-2.66,2.92-4.53,5.1-9.22,1.59-6.68-5-14.85-6.49-23.27-4.32-3.7.95-7.17,2.53-7.66,6.77-.49,4.24,2.91,6.18,6.14,7.52,5.36,2.22,10.93,3.95,16.35,6.03,2.94,1.13,5.83,2.42,8.62,3.88,5.04,2.64,8.28,6.54,8.32,12.59.04,6.66-4.1,10.48-9.43,12.86-12.44,5.57-32.72,2.43-41.24-9.07Z"/><path class="cls-2" d="M298.57,598c-5.55,1.71-8.22-.06-10.45-4.62-6.2-12.68-12.94-25.1-19.49-37.62-.36-.68-.93-1.24-1.93-2.53-3.93,7.5-7.6,14.47-11.24,21.45-3.3,6.34-7,12.52-9.72,19.1-2.14,5.17-5.47,5.38-10.63,4.24,3.2-6.18,6.24-12.02,9.26-17.88,6.32-12.27,12.57-24.57,19.02-36.77.71-1.34,2.46-2.77,3.85-2.91,1.06-.11,2.77,1.51,3.43,2.77,8.69,16.64,17.25,33.35,25.82,50.05.74,1.44,1.32,2.97,2.08,4.72Z"/><path class="cls-2" d="M548.74,540.58v6.52c-5.7,0-11.16.15-16.6-.05-3.55-.14-5.72.98-7.46,4.29-7.5,14.26-15.53,28.24-22.86,42.59-2.46,4.82-5.55,5.26-10.62,4.08,9.15-16.87,18.11-33.4,27.57-50.85-6.5,0-12.08-.22-17.64.06-5.01.25-6.26-1.79-4.58-6.64h52.18Z"/><path class="cls-2" d="M347.92,540.76c-9.09,16.73-18.01,33.17-27.36,50.39h35.54v7.15h-47.76c5.69-10.53,11.1-20.55,16.53-30.57,4.03-7.44,8.47-14.7,12-22.37,2.3-5,5.47-6.13,11.04-4.6Z"/><path class="cls-2" d="M412.98,540.71c-8.31,8.89-16.1,17.23-24.5,26.21,10.67,10.2,21.37,20.43,32.63,31.19-6.23,1.01-10.72.51-14.99-4.01-7.76-8.2-16.12-15.86-24.48-23.45-2.83-2.57-2.79-4.24-.27-6.82,5.92-6.07,11.65-12.32,17.43-18.52q5.28-5.67,14.19-4.59Z"/><path class="cls-2" d="M377.03,598.35h-6.95v-57.33c6.35-1.8,6.94-1.39,6.94,4.89.01,17.28,0,34.57,0,52.43Z"/><path class="cls-2" d="M696.45,598.3v-6.59h42.7v6.59h-42.7Z"/><path class="cls-2" d="M739.17,540.44v6.56h-42.52v-6.56h42.52Z"/><path class="cls-2" d="M725.58,566.01v6.69h-28.91v-6.69h28.91Z"/><path class="cls-4" d="M584.8,546.16c14.72.09,24.47,9.6,24.36,23.79-.1,13.26-10.32,22.7-24.51,22.65-14.8-.05-24.73-9.55-24.62-23.55.1-13.55,10.3-22.98,24.77-22.9Z"/><path class="cls-4" d="M638.88,547.41c7.35,0,14-.36,20.59.12,5.11.37,9.16,5.54,9.07,10.32-.09,4.74-4.3,9.39-9.61,9.8-5.63.43-11.31.38-16.96.18-1.06-.04-2.86-1.73-2.95-2.77-.35-3.96-.14-7.98-.14-11.97,0-1.64,0-3.27,0-5.68Z"/></g><path id="Tracé_33" class="cls-1" d="M876.67,570.73h251.9l-13.5-17.01"/></svg>