<?xml version="1.0" encoding="UTF-8"?><svg id="Calque_1" xmlns="http://www.w3.org/2000/svg" viewBox="0 0 195.79 87.59"><defs><style>.cls-1{fill:#ff477e;}</style></defs><path class="cls-1" d="m37.29,85.28v-20.78H0v-10.45L38.96,0h9.03v55.17h12.53v9.32h-12.53v20.78h-10.69Zm-.18-30.11V16.54L9.86,55.17h27.26Z"/><path class="cls-1" d="m121.32,13.84c3.8,7.01,5.7,16.61,5.7,28.8,0,11.56-1.72,21.12-5.17,28.68-4.99,10.85-13.14,16.27-24.47,16.27-10.21,0-17.82-4.43-22.8-13.3-4.16-7.4-6.24-17.34-6.24-29.81,0-9.66,1.25-17.95,3.74-24.88C76.76,6.69,85.22.24,97.45.24c11.01,0,18.96,4.53,23.87,13.6Zm-10.76,56.65c3.29-4.91,4.94-14.05,4.94-27.44,0-9.66-1.19-17.61-3.57-23.84-2.38-6.24-7-9.35-13.86-9.35-6.3,0-10.92,2.96-13.83,8.88-2.92,5.92-4.37,14.64-4.37,26.16,0,8.67.93,15.64,2.8,20.9,2.86,8.04,7.73,12.05,14.63,12.05,5.55,0,9.97-2.45,13.26-7.36Z"/><path class="cls-1" d="m172.57,85.28v-20.78h-37.29v-10.45L174.23,0h9.03v55.17h12.53v9.32h-12.53v20.78h-10.69Zm-.18-30.11V16.54l-27.26,38.63h27.26Z"/></svg>