<?xml version="1.0" encoding="UTF-8"?><svg id="Calque_1" xmlns="http://www.w3.org/2000/svg" viewBox="0 0 347.4 304.6"><defs><style>.cls-1{fill:none;stroke:#FF477E;stroke-miterlimit:10;stroke-width:8px;}</style></defs><g id="MyqrjA"><path class="cls-1" d="M173.03,44.95c8.84-7.74,16.96-15.74,25.99-22.54,16.78-12.65,35.57-20.59,56.99-20.21,25.91.46,47.15,11.6,64.3,30.4,22.21,24.36,28.52,53.41,23.44,85.42-4.08,25.76-15.26,48.34-30.86,68.97-25.75,34.06-57.53,61.7-92.25,86.08-14.48,10.17-29.63,19.38-44.57,28.89-1.08.69-3.24.88-4.28.26-38.88-23.05-75.59-49-107.59-81.16-18.36-18.45-35.19-38.17-47.03-61.55C5.66,136.77.25,112.63,2.5,87.01,6.2,44.98,41.13,7.92,82.25,2.65c21.2-2.72,40.4,3.23,58.28,14.26,12.47,7.7,23.34,17.28,32.5,28.03h0Z"/></g></svg>